<svg xmlns="http://www.w3.org/2000/svg" version="1.0" width="256.000000pt" height="256.000000pt" viewBox="0 0 256.000000 256.000000" preserveAspectRatio="xMidYMid meet">

<g transform="translate(0.000000,256.000000) scale(0.100000,-0.100000)" fill="#feefa5" stroke="none">
<path d="M1486 2315 c-15 -8 -49 -32 -75 -53 -25 -22 -56 -44 -68 -51 -27 -14 -106 -14 -153 -1 -56 16 -96 2 -158 -54 -31 -29 -68 -60 -82 -69 -35 -24 -105 -22 -130 3 -26 26 -25 37 5 93 13 26 21 49 16 51 -13 9 -125 -50 -153 -80 -38 -41 -58 -105 -58 -184 0 -49 -4 -71 -16 -81 -22 -18 -51 -78 -59 -121 -7 -35 15 -127 36 -154 6 -7 -10 -49 -41 -110 -70 -141 -95 -269 -87 -454 12 -277 80 -422 269 -578 44 -37 76 -71 87 -98 27 -60 75 -109 133 -135 45 -20 69 -24 158 -24 109 0 157 12 257 65 78 40 182 173 183 232 0 9 17 27 38 39 20 13 61 46 90 73 50 47 55 50 103 47 38 -2 59 3 93 23 58 34 104 88 112 132 8 43 -1 131 -15 148 -8 9 8 45 55 126 114 196 151 318 141 458 -4 52 -13 93 -30 127 -13 28 -30 68 -38 89 -9 25 -36 59 -76 94 -41 37 -69 72 -84 106 -71 162 -63 152 -141 183 -46 18 -90 46 -127 78 -112 102 -129 109 -185 80z m64 -21 c0 -9 -5 -14 -12 -12 -18 6 -21 28 -4 28 9 0 16 -7 16 -16z m-50 -2 c0 -5 -10 -19 -21 -31 -17 -18 -23 -20 -30 -9 -6 9 -8 5 -7 -12 2 -19 -1 -24 -16 -22 -10 2 -16 -1 -12 -6 6 -11 -41 -82 -55 -82 -6 0 -7 5 -4 10 3 6 1 10 -4 10 -6 0 -11 -7 -11 -15 0 -8 -5 -15 -10 -15 -6 0 -3 14 6 31 13 25 18 29 26 18 7 -10 8 -8 3 7 -3 13 1 26 11 35 15 12 16 11 10 -11 -4 -17 0 -13 14 12 21 39 58 71 72 62 4 -3 8 2 8 10 0 9 5 16 10 16 6 0 10 -4 10 -8z m78 -4 c-2 -6 -10 -14 -16 -16 -7 -2 -10 2 -6 12 7 18 28 22 22 4z m68 -63 c3 -14 11 -22 19 -19 7 3 20 -5 29 -18 9 -13 17 -22 19 -21 5 6 47 -10 47 -18 0 -5 6 -6 14 -3 8 3 21 -4 29 -16 10 -15 16 -18 19 -8 8 22 65 -47 72 -87 4 -20 16 -51 27 -70 12 -19 17 -35 12 -35 -4 0 -24 32 -43 70 -19 39 -38 70 -42 70 -3 0 -10 9 -13 21 -4 11 -9 18 -12 15 -3 -3 -15 0 -27 6 -23 13 -28 15 -51 17 -8 0 -15 8 -15 16 0 18 -20 20 -20 3 -1 -9 -5 -8 -13 3 -7 9 -17 14 -22 12 -6 -2 -19 12 -29 31 -10 20 -24 34 -30 33 -6 -1 -10 7 -8 18 2 13 0 16 -5 8 -11 -15 -38 0 -29 16 11 17 65 -15 72 -44z m-32 -31 c60 -57 83 -73 116 -79 22 -4 47 -13 54 -20 7 -8 16 -12 18 -10 8 9 45 -39 77 -100 18 -33 43 -70 57 -82 13 -12 48 -56 78 -97 62 -86 81 -153 81 -286 0 -87 -29 -230 -47 -230 -5 0 -7 -3 -4 -8 7 -12 -23 -74 -34 -67 -5 3 -7 0 -4 -9 3 -8 0 -25 -7 -37 -11 -21 -13 -17 -31 52 -11 41 -21 81 -23 89 -9 41 -42 89 -85 124 l-48 40 56 19 c30 10 64 29 74 43 11 13 25 21 31 17 7 -3 9 -3 5 2 -11 12 11 47 25 38 8 -5 8 -2 -1 9 -7 8 -10 22 -6 31 8 21 -20 72 -53 95 -40 27 -105 35 -189 21 -88 -15 -106 -7 -149 72 -38 70 -116 144 -156 147 -17 1 -51 -7 -76 -18 -25 -11 -49 -18 -53 -15 -4 3 -10 -2 -14 -10 -6 -18 -96 -22 -96 -4 0 5 -4 8 -9 4 -6 -3 -25 4 -43 15 -52 32 -101 27 -148 -16 -23 -21 -44 -33 -51 -28 -8 5 -9 3 -4 -5 16 -27 -115 -114 -145 -96 -5 3 -10 2 -10 -4 0 -12 -46 5 -73 28 -9 8 -20 11 -23 8 -4 -3 10 -16 30 -28 36 -21 44 -29 27 -29 -17 0 -71 52 -65 61 3 6 1 16 -5 23 -17 21 -33 117 -21 131 5 6 7 15 4 18 -4 4 -2 19 4 34 5 15 13 36 16 47 5 16 9 16 24 5 15 -13 16 -12 3 3 -14 19 -9 48 9 48 5 0 10 -9 10 -19 0 -11 15 -35 33 -55 32 -33 37 -35 88 -32 30 2 69 11 87 20 18 9 38 14 44 10 6 -4 8 -3 5 3 -10 15 126 106 157 106 15 0 50 -16 79 -35 55 -37 106 -51 124 -34 6 6 23 20 37 31 14 11 25 24 26 30 0 15 90 102 105 102 8 0 48 -33 89 -73z m-808 0 c-9 -8 -16 -22 -16 -31 0 -12 -3 -13 -15 -3 -8 6 -20 8 -27 4 -10 -5 -10 -4 -1 6 12 13 53 37 66 39 5 1 1 -6 -7 -15z m299 -14 c-3 -5 -16 -15 -28 -21 -22 -12 -22 -12 -3 10 19 21 43 30 31 11z m120 0 c3 -6 -1 -7 -9 -4 -18 7 -21 14 -7 14 6 0 13 -4 16 -10z m99 -6 c4 -10 2 -13 -6 -8 -7 5 -9 2 -5 -9 4 -11 2 -14 -9 -10 -10 4 -12 0 -8 -13 5 -13 4 -16 -3 -9 -6 6 -13 21 -17 35 -3 14 -3 19 0 13 4 -10 9 -9 21 2 18 19 19 19 27 -1z m-64 -27 c0 -5 -4 -5 -10 -2 -5 3 -10 14 -10 23 0 15 2 15 10 2 5 -8 10 -19 10 -23z m-477 -10 c7 3 9 3 5 -2 -4 -4 -1 -23 7 -41 8 -19 10 -34 6 -34 -15 0 -41 48 -40 72 0 13 3 17 6 10 2 -6 10 -9 16 -5z m-93 -37 c-7 -16 -16 -30 -21 -30 -14 0 -11 17 6 34 8 8 15 20 15 27 0 7 3 9 6 6 4 -4 1 -20 -6 -37z m163 -47 c-7 -2 -19 -2 -25 0 -7 3 -2 5 12 5 14 0 19 -2 13 -5z m-197 -61 c-11 -10 -14 3 -8 33 l7 30 3 -28 c2 -16 1 -31 -2 -35z m-4 -47 c3 -13 1 -22 -3 -19 -9 5 -13 44 -5 44 2 0 6 -11 8 -25z m823 -7 c25 -11 33 -32 15 -43 -5 -3 -16 7 -24 22 -8 15 -15 24 -16 20 0 -5 7 -22 17 -37 16 -28 16 -28 33 -8 16 20 16 20 43 -15 14 -19 32 -48 39 -64 17 -37 48 -73 73 -83 18 -8 18 -9 -5 -9 -15 -1 -30 7 -38 19 -7 12 -17 18 -22 15 -6 -4 -7 1 -3 11 4 11 2 15 -4 11 -6 -4 -28 12 -50 36 -21 23 -45 43 -53 45 -8 2 -19 9 -25 16 -5 7 -17 11 -25 8 -13 -5 -13 -3 -1 12 12 14 12 16 -3 10 -19 -7 -21 7 -4 24 9 9 9 12 1 12 -7 0 -15 -9 -18 -21 -5 -15 -10 -18 -18 -10 -15 15 10 41 39 41 13 0 35 -5 49 -12z m-317 -50 c60 -47 69 -48 219 -33 78 8 115 -11 174 -91 43 -59 41 -58 159 -55 86 3 112 -5 158 -48 57 -53 39 -104 -59 -173 l-24 -16 39 -41 c22 -22 43 -38 47 -35 4 2 13 -6 19 -18 11 -22 10 -22 -4 -4 -18 23 -21 14 -5 -15 5 -11 15 -16 21 -13 7 4 8 3 4 -4 -4 -6 4 -46 18 -89 26 -81 42 -152 33 -143 -3 3 -16 38 -30 78 -31 91 -104 205 -125 197 -10 -3 -12 0 -8 10 3 8 1 15 -4 15 -6 0 -10 -7 -10 -16 0 -21 39 -76 50 -69 5 3 12 0 16 -6 4 -8 3 -9 -4 -5 -21 13 -12 -5 22 -45 43 -50 84 -172 67 -193 -10 -12 -22 5 -66 93 -30 59 -63 115 -74 126 -21 18 -21 18 -21 -7 0 -16 9 -32 24 -41 13 -9 45 -59 70 -111 38 -77 45 -99 37 -115 -6 -11 -16 -21 -23 -24 -9 -3 -6 -12 10 -29 30 -33 28 -82 -5 -148 -33 -64 -75 -90 -144 -90 -44 0 -50 -3 -89 -50 -24 -28 -68 -70 -99 -94 -65 -50 -217 -137 -225 -128 -3 3 -6 0 -6 -7 0 -20 27 -23 80 -8 32 9 50 11 50 4 0 -25 -83 -86 -165 -121 -83 -36 -93 -38 -176 -34 -49 1 -93 8 -100 15 -9 9 -2 10 27 6 22 -2 53 1 69 7 27 11 28 13 10 20 -11 4 -45 12 -75 18 -32 6 -96 32 -153 63 -133 72 -229 171 -293 301 -24 50 -44 99 -44 107 0 9 -7 34 -14 56 -29 84 -40 214 -27 315 21 163 113 364 226 493 50 57 74 76 113 89 31 12 76 41 122 83 90 81 110 83 188 23z m18 14 c-4 -3 -14 2 -24 12 -16 18 -16 18 6 6 13 -6 21 -14 18 -18z m202 7 c19 -30 8 -34 -12 -4 -9 14 -13 25 -9 25 5 0 14 -9 21 -21z m-25 -13 c3 -8 -2 -16 -14 -19 -16 -4 -17 -2 -8 14 12 23 15 23 22 5z m-135 -15 c3 -8 -1 -12 -9 -9 -7 2 -15 10 -17 17 -3 8 1 12 9 9 7 -2 15 -10 17 -17z m90 -1 c-14 -23 -28 -26 -28 -7 0 8 -3 8 -9 -2 -10 -16 -41 -8 -41 11 0 9 3 8 10 -2 8 -12 10 -12 10 -1 0 9 8 12 25 9 14 -3 25 -1 25 3 0 5 5 9 10 9 6 0 5 -8 -2 -20z m-659 -17 c8 -15 8 -23 1 -23 -5 0 -10 7 -10 16 0 8 -5 12 -10 9 -6 -4 -7 -12 -4 -18 5 -9 4 -9 -6 0 -10 9 -10 14 1 26 8 8 15 14 15 13 1 0 7 -11 13 -23z m1377 -17 c8 -8 14 -17 14 -20 0 -2 14 -28 32 -55 17 -28 29 -53 27 -55 -2 -2 -25 30 -51 70 -46 71 -53 90 -22 60z m-1416 -16 c0 -5 -5 -10 -11 -10 -5 0 -7 5 -4 10 3 6 8 10 11 10 2 0 4 -4 4 -10z m94 -39 c15 -16 23 -32 18 -35 -6 -3 -27 -31 -48 -63 -34 -51 -38 -54 -45 -35 -5 12 -11 44 -15 72 -5 41 -3 54 11 70 25 28 46 25 79 -9z m-103 5 c-15 -18 -8 -100 13 -150 14 -34 18 -37 33 -25 14 12 14 10 -1 -13 -10 -16 -23 -28 -28 -28 -5 0 -7 4 -4 9 3 4 -6 32 -20 61 -18 38 -22 55 -14 60 9 6 9 13 1 28 -14 26 -11 43 9 59 20 17 25 16 11 -1z m169 -40 c0 -2 -7 -6 -15 -10 -8 -3 -15 -1 -15 4 0 6 7 10 15 10 8 0 15 -2 15 -4z m1066 -31 c-7 -8 -13 -9 -17 -3 -4 6 -12 7 -18 4 -6 -4 -11 -3 -11 3 0 5 13 9 29 9 23 -1 26 -4 17 -13z m50 2 c8 3 14 0 14 -7 0 -6 -5 -8 -11 -4 -7 4 -7 -2 1 -17 17 -31 25 -39 16 -15 -4 12 -2 23 6 27 14 9 38 -7 38 -25 0 -6 -7 -2 -15 8 -21 27 -19 11 2 -21 13 -19 14 -28 5 -31 -16 -5 -15 -19 2 -25 10 -4 12 4 10 29 -2 36 9 46 20 17 4 -9 1 -20 -6 -25 -10 -7 -10 -11 -1 -14 9 -4 10 -10 1 -24 -9 -14 -15 -16 -25 -8 -10 8 -12 7 -8 -5 7 -15 -48 -87 -59 -77 -3 3 8 19 23 36 16 17 28 39 27 50 -1 28 -38 94 -51 94 -21 0 -34 22 -22 35 7 7 13 9 15 5 2 -5 10 -6 18 -3z m-1162 -19 c-46 -53 -54 -61 -54 -53 0 14 50 75 62 75 6 0 3 -10 -8 -22z m1396 -33 c0 -8 -4 -16 -9 -19 -5 -3 -8 5 -8 19 0 14 3 22 8 19 5 -3 9 -11 9 -19z m19 -42 c0 -10 2 -56 5 -103 5 -78 4 -83 -10 -65 -10 13 -13 32 -10 58 4 26 2 36 -5 31 -7 -4 -7 2 1 16 7 12 8 20 2 16 -14 -8 -12 47 2 56 15 10 15 10 15 -9z m-1519 -67 c0 -7 -60 -121 -70 -133 -6 -7 -9 -16 -9 -20 1 -4 -1 -17 -5 -28 -20 -53 -27 -67 -33 -62 -3 3 -2 14 2 24 5 10 9 23 10 28 4 27 28 75 37 75 5 0 6 5 3 11 -4 5 1 19 11 30 9 10 14 19 10 19 -3 0 0 14 9 30 13 25 35 41 35 26z m1520 -160 c0 -14 -5 -26 -11 -26 -6 0 -9 9 -6 19 3 15 1 18 -12 14 -12 -5 -13 -3 -4 7 6 7 9 20 5 29 -5 14 -4 14 11 -1 9 -9 17 -28 17 -42z m-319 -48 c11 -21 11 -22 -4 -9 -10 7 -17 17 -17 22 0 15 9 10 21 -13z m297 -3 c3 -10 0 -15 -7 -11 -6 4 -11 3 -11 -3 0 -5 6 -11 13 -14 8 -3 4 -11 -12 -26 -29 -25 -32 -26 -25 -6 4 8 10 15 15 15 4 0 6 16 3 36 -3 26 -1 35 8 32 7 -3 15 -13 16 -23z m-29 -106 c-6 -11 -17 -23 -25 -26 -8 -3 -12 -13 -9 -22 3 -10 -5 -27 -17 -41 -13 -14 -21 -26 -18 -27 3 -1 -3 -11 -12 -23 -10 -11 -15 -20 -12 -20 3 0 2 -5 -2 -11 -4 -8 -9 -7 -14 2 -12 18 -2 36 23 43 17 5 19 8 9 15 -11 6 -8 13 13 29 15 12 24 25 21 30 -10 16 16 68 35 69 16 2 17 -1 8 -18z m-1589 -9 c0 -5 -5 -10 -11 -10 -5 0 -7 5 -4 10 3 6 8 10 11 10 2 0 4 -4 4 -10z m1459 -35 c0 -5 -4 -3 -9 5 -5 8 -9 22 -9 30 0 16 17 -16 18 -35z m-1469 -45 c0 -5 -4 -10 -10 -10 -5 0 -10 5 -10 10 0 6 5 10 10 10 6 0 10 -4 10 -10z m0 -96 c0 -8 -4 -12 -10 -9 -5 3 -10 10 -10 16 0 5 5 9 10 9 6 0 10 -7 10 -16z m1479 -25 c-23 -15 -28 -10 -16 15 10 21 13 22 21 9 5 -10 4 -18 -5 -24z m-1476 -72 c-2 -4 1 -15 8 -23 6 -8 9 -17 6 -21 -4 -3 -2 -12 4 -19 6 -7 7 -23 3 -36 -6 -19 -9 -12 -19 37 -7 33 -11 63 -9 67 2 3 0 17 -5 31 -5 14 -7 28 -3 32 8 8 23 -56 15 -68z m1447 38 c-14 -8 -20 -14 -14 -15 15 0 38 -49 40 -85 1 -16 3 -34 4 -40 5 -20 0 -36 -10 -30 -5 3 -10 2 -10 -3 0 -10 -30 -25 -37 -19 -8 9 17 57 29 56 10 0 10 -2 0 -6 -6 -2 -10 -9 -7 -13 3 -5 12 -7 21 -3 11 4 12 9 3 19 -6 8 -17 14 -23 14 -20 0 -16 39 5 45 19 6 17 25 -2 25 -6 0 -7 -5 -3 -12 5 -7 3 -8 -5 -4 -7 5 -10 14 -7 22 3 8 1 14 -4 14 -6 0 -10 7 -10 15 0 14 26 34 45 34 6 0 -1 -6 -15 -14z m-1401 -195 c5 -17 7 -38 4 -47 -4 -11 -3 -14 5 -9 7 4 12 1 12 -9 0 -9 14 -36 30 -60 17 -24 30 -46 30 -50 0 -4 6 -12 13 -20 6 -7 20 -23 31 -36 10 -13 28 -34 39 -46 32 -35 12 -27 -25 10 -70 70 -135 167 -149 222 -4 16 -11 40 -14 53 -11 34 11 27 24 -8z m1416 -10 c-3 -5 -10 -10 -16 -10 -5 0 -9 5 -9 10 0 6 7 10 16 10 8 0 12 -4 9 -10z m-40 -9 c-3 -5 -1 -12 5 -16 5 -3 10 -11 10 -16 0 -6 -4 -7 -10 -4 -5 3 -10 0 -10 -8 0 -8 -18 -24 -40 -36 -49 -25 -107 -33 -107 -15 0 9 9 12 26 8 18 -4 22 -3 13 4 -11 7 -9 10 7 15 12 3 19 1 15 -4 -3 -5 2 -6 10 -3 9 3 13 11 9 18 -4 6 2 4 12 -4 17 -14 18 -13 12 3 -7 20 3 23 21 5 7 -7 12 -8 12 -2 0 5 -6 16 -12 23 -11 10 -9 11 7 5 17 -7 18 -6 7 8 -10 13 -10 17 0 21 19 8 20 8 13 -2z m-195 -97 c0 -14 -3 -14 -15 -4 -8 7 -15 14 -15 16 0 2 7 4 15 4 8 0 15 -7 15 -16z m-48 -56 c-7 -7 -12 -9 -12 -5 0 4 -6 2 -14 -5 -8 -7 -12 -16 -10 -19 2 -3 -13 -15 -34 -25 -20 -10 -42 -26 -49 -35 -15 -20 -82 -53 -90 -45 -4 3 -2 6 4 6 10 0 142 98 171 127 7 7 18 13 23 13 6 0 7 6 3 13 -6 10 -4 10 7 0 10 -10 10 -16 1 -25z m-150 -153 c-2 -14 -9 -25 -14 -25 -5 0 -6 5 -2 12 4 7 3 8 -4 4 -6 -4 -9 -13 -5 -21 7 -19 -11 -19 -26 -1 -9 11 -5 18 21 34 18 11 34 21 34 21 1 1 -1 -10 -4 -24z m-692 -62 c0 -2 -8 1 -17 6 -28 17 -53 38 -53 45 0 4 16 -5 35 -20 19 -14 35 -28 35 -31z m595 47 c-3 -5 -11 -10 -16 -10 -6 0 -7 5 -4 10 3 6 11 10 16 10 6 0 7 -4 4 -10z m-35 -10 c0 -5 -8 -10 -17 -10 -15 0 -16 2 -3 10 19 12 20 12 20 0z m94 -26 c21 -8 10 -25 -12 -18 -14 5 -15 4 -2 -5 13 -9 12 -12 -5 -25 -23 -18 -35 -20 -35 -6 0 6 7 10 15 10 9 0 15 6 14 13 -4 35 0 41 25 31z m-545 -60 c14 -12 -19 -1 -35 12 -18 14 -18 14 6 3 14 -6 27 -13 29 -15z m-29 -22 c3 -3 -4 -2 -14 2 -11 4 -22 2 -26 -5 -6 -8 -9 -8 -14 0 -4 6 -2 11 4 11 6 0 8 5 4 11 -6 10 34 -6 46 -19z m525 8 c3 -5 -1 -10 -10 -10 -10 0 -13 -5 -9 -12 4 -7 4 -10 0 -6 -5 4 -18 -2 -30 -14 -28 -27 -95 -58 -112 -51 -8 3 -16 -2 -20 -10 -3 -10 -16 -15 -32 -13 -15 1 -33 -2 -39 -7 -9 -6 -18 -5 -28 3 -17 14 -11 30 12 30 13 0 13 -3 3 -15 -19 -23 1 -18 27 6 20 20 23 20 29 5 6 -15 11 -13 42 16 19 18 32 28 29 22 -4 -7 0 -15 9 -18 8 -3 13 -2 10 3 -10 16 29 53 59 57 16 1 31 8 33 13 5 14 19 14 27 1z m-450 -10 c3 -5 1 -10 -4 -10 -6 0 -11 5 -11 10 0 6 2 10 4 10 3 0 8 -4 11 -10z m30 -10 c3 -5 1 -10 -4 -10 -6 0 -11 5 -11 10 0 6 2 10 4 10 3 0 8 -4 11 -10z m-60 -10 c8 -13 -5 -13 -25 0 -13 8 -13 10 2 10 9 0 20 -4 23 -10z m10 -42 c6 -4 24 -19 40 -33 27 -24 27 -25 5 -14 -14 6 -33 19 -43 27 -14 12 -20 13 -26 4 -5 -8 -17 -3 -42 18 -18 16 -26 27 -16 24 9 -4 17 -1 17 5 0 10 26 -2 65 -31z m110 -33 c17 -14 24 -25 17 -25 -17 0 -62 30 -62 41 0 15 13 10 45 -16z m49 -7 c11 -10 14 -18 7 -18 -6 0 -21 8 -32 18 -11 11 -14 19 -7 19 7 0 22 -9 32 -19z" fill="#feefa5"/>
<path d="M1665 2190 c-3 -5 -1 -10 4 -10 6 0 11 5 11 10 0 6 -2 10 -4 10 -3 0 -8 -4 -11 -10z" fill="#feefa5"/>
<path d="M1527 1864 c-3 -5 1 -15 9 -22 16 -14 18 -5 5 17 -5 7 -11 9 -14 5z" fill="#feefa5"/>
<path d="M1562 1800 c7 -10 14 -18 15 -16 6 6 -9 36 -18 36 -5 0 -4 -9 3 -20z" fill="#feefa5"/>
<path d="M838 1713 c-27 -14 -48 -30 -48 -34 0 -3 25 -10 56 -14 64 -8 84 3 84 46 0 38 -27 38 -92 2z m68 -4 c-13 -8 -15 -13 -6 -19 9 -5 9 -9 1 -14 -6 -4 -11 -3 -11 2 0 6 -10 8 -22 6 -13 -2 -17 -1 -8 2 8 4 21 13 28 21 7 7 19 13 25 13 7 0 4 -5 -7 -11z" fill="#feefa5"/>
<path d="M1400 1638 c-29 -31 -25 -43 23 -71 23 -14 53 -37 66 -51 67 -71 45 31 -24 113 -32 37 -38 38 -65 9z m50 -25 c7 -16 13 -31 12 -35 -1 -5 3 -8 10 -8 6 0 9 -2 6 -5 -8 -9 -38 6 -32 16 6 11 -20 51 -29 43 -3 -3 -3 -12 0 -20 4 -10 0 -12 -11 -8 -16 6 -16 8 0 25 23 25 28 24 44 -8z" fill="#feefa5"/>
<path d="M770 1498 c-24 -39 -27 -110 -5 -128 24 -20 53 -2 65 38 28 102 -14 165 -60 90z" fill="#feefa5"/>
<path d="M1064 1439 c-16 -23 -69 -79 -118 -124 l-89 -83 13 -53 c7 -29 23 -63 36 -76 25 -25 32 -27 54 -14 12 8 11 17 -9 59 -28 60 -25 74 37 150 80 97 131 169 125 176 -12 12 -21 6 -49 -35z m-121 -161 c-4 -7 -8 -17 -8 -23 0 -5 -5 -10 -12 -10 -6 0 -15 -3 -19 -7 -4 -5 -3 -8 2 -8 5 0 10 -10 11 -21 2 -21 1 -21 -13 -3 -8 11 -3 -2 11 -28 15 -27 24 -48 20 -48 -4 0 -2 -7 5 -15 16 -19 0 -19 -26 0 -16 13 -17 16 -4 24 13 9 13 12 -2 23 -9 7 -22 25 -27 40 -9 23 -6 29 27 57 41 34 47 37 35 19z" fill="#feefa5"/>
<path d="M1338 1393 c-39 -45 -49 -95 -25 -127 22 -29 53 -12 73 40 27 72 -7 134 -48 87z" fill="#feefa5"/>
<path d="M1745 1190 c-4 -6 8 -28 27 -49 18 -21 41 -53 51 -71 12 -23 21 -30 28 -23 13 13 -16 74 -56 122 -28 33 -40 38 -50 21z m55 -42 c0 -4 -9 1 -20 12 -11 11 -20 23 -20 27 0 3 9 -2 20 -12 11 -10 20 -22 20 -27z" fill="#feefa5"/>
<path d="M1723 1088 c31 -80 41 -98 49 -98 16 0 2 69 -18 91 -19 21 -39 25 -31 7z" fill="#feefa5"/>
<path d="M623 1046 l-43 -47 15 -47 c9 -26 20 -53 24 -61 11 -16 31 -6 31 16 0 10 17 1 53 -29 74 -64 126 -94 193 -114 78 -23 147 -14 282 36 147 54 159 53 126 -11 -8 -17 -14 -33 -11 -35 6 -7 30 34 55 95 l22 53 -50 52 c-27 28 -57 60 -65 71 -15 19 -16 17 -10 -26 7 -58 8 -57 -172 -66 -146 -7 -215 2 -330 43 l-72 26 -3 45 -3 45 -42 -46z m34 -23 c0 -10 -6 -26 -14 -35 -8 -9 -12 -21 -9 -26 3 -6 3 -18 -1 -28 -5 -14 -9 -9 -20 21 -7 21 -11 41 -8 43 3 3 5 0 5 -6 0 -7 5 -12 11 -12 6 0 8 9 4 20 -4 12 -2 20 5 20 6 0 8 -5 4 -12 -4 -7 -3 -8 4 -4 6 4 9 13 5 21 -3 8 -1 15 4 15 5 0 10 -8 10 -17z m69 -57 c134 -54 258 -65 467 -40 38 5 52 2 68 -11 10 -10 19 -22 19 -26 0 -4 -24 -16 -52 -27 -166 -61 -308 -68 -411 -20 -72 34 -168 114 -160 134 6 17 -1 18 69 -10z m583 -32 c14 -11 8 -34 -9 -34 -7 0 -40 71 -40 87 0 4 8 -4 17 -17 9 -14 24 -30 32 -36z m31 -38 c0 -2 -7 -9 -15 -16 -13 -11 -14 -10 -9 4 5 14 24 23 24 12z m-476 -95 c4 -5 -3 -7 -14 -4 -23 6 -26 13 -6 13 8 0 17 -4 20 -9z m221 -11 c-4 -6 -13 -9 -21 -6 -7 3 -16 1 -19 -4 -4 -6 -12 -10 -18 -10 -7 0 -3 7 7 15 10 8 22 12 27 10 4 -3 11 0 14 6 4 5 9 8 12 5 3 -2 2 -10 -2 -16z m45 16 c0 -3 -4 -8 -10 -11 -5 -3 -10 -1 -10 4 0 6 5 11 10 11 6 0 10 -2 10 -4z m-225 -24 c-3 -3 -11 0 -18 7 -9 10 -8 11 6 5 10 -3 15 -9 12 -12z m47 -4 c-9 -9 -15 -9 -24 0 -9 9 -7 12 12 12 19 0 21 -3 12 -12z m48 2 c0 -5 -7 -10 -16 -10 -8 0 -12 5 -9 10 3 6 10 10 16 10 5 0 9 -4 9 -10z" fill="#feefa5"/>
<path d="M811 725 c8 -40 123 -73 136 -40 8 21 4 23 -53 34 -27 5 -57 13 -68 17 -14 5 -17 3 -15 -11z m99 -25 c24 -8 24 -8 -5 -9 -16 0 -37 4 -45 9 -12 8 -11 10 5 9 11 -1 31 -5 45 -9z" fill="#feefa5"/>
<path d="M900 301 c0 -11 31 -24 39 -16 3 3 -1 10 -9 15 -19 12 -30 12 -30 1z" fill="#feefa5"/>
</g>
</svg>