<?xml version="1.0" encoding="UTF-8"?><svg xmlns="http://www.w3.org/2000/svg" viewBox="0 0 1283.59 1295.92"><defs><style>.d{fill:#ffdd92;}.e{fill:#ffc64a;}</style></defs><g id="a"/><g id="b"><g id="c"><g><path class="e" d="M1283.35,832.19c-.27,3.07-.82,6.16-1.56,9.26-.09,.38-.18,.77-.28,1.15-.56,2.21-1.16,4.41-1.8,6.59-.91,3.11-1.89,6.2-2.94,9.26-.88,2.6-1.82,5.18-2.8,7.74-1.18,3.11-2.42,6.2-3.72,9.26-1.09,2.6-2.23,5.18-3.39,7.74-1.41,3.11-2.86,6.19-4.35,9.26-1.24,2.59-2.52,5.17-3.82,7.74-.92,1.82-1.85,3.64-2.78,5.46-.65,1.26-1.3,2.53-1.94,3.8-1.32,2.57-2.62,5.16-3.91,7.74-1.55,3.08-3.08,6.17-4.62,9.26-1.29,2.58-2.58,5.16-3.88,7.74-1.56,3.09-3.12,6.18-4.71,9.26-1.34,2.59-2.69,5.17-4.06,7.74-1.22,2.29-2.46,4.58-3.72,6.86-.44,.8-.89,1.6-1.34,2.4-1.45,2.59-2.92,5.17-4.41,7.74-1.79,3.1-3.61,6.18-5.44,9.26-1.53,2.58-3.08,5.16-4.64,7.74-1.87,3.09-3.74,6.18-5.62,9.26-1.57,2.58-3.13,5.16-4.69,7.74-1.7,2.79-3.38,5.58-5.06,8.38-.18,.29-.35,.59-.53,.88-1.55,2.59-3.12,5.17-4.69,7.74-1.88,3.09-3.77,6.17-5.65,9.26-1.58,2.58-3.14,5.15-4.69,7.74-1.85,3.07-3.67,6.16-5.46,9.26-1.18,2.04-2.34,4.09-3.49,6.15-.3,.54-.6,1.07-.91,1.59-2.14,3.65-4.44,6.81-7.16,9.26-4.56,4.13-10.29,6.23-18.42,5.19-9.03-1.16-18.38-.8-27.51-.11-11.12,.84-20.98-1.06-29.99-5.08-5.36-2.38-10.41-5.51-15.24-9.26-3.04-2.35-5.98-4.94-8.86-7.74-.15-.14-.31-.29-.46-.44-2.91-2.86-5.73-5.81-8.45-8.82-2.28-2.53-4.5-5.11-6.65-7.74-2.49-3.03-4.88-6.11-7.19-9.26-1.8-2.44-3.55-4.91-5.25-7.41-.07-.11-.15-.22-.22-.33-1.96-3.01-2.92-6.12-3.16-9.26-.21-2.57,.07-5.16,.65-7.74,.72-3.12,1.89-6.23,3.26-9.26,.49-1.12,1.02-2.23,1.55-3.32,.72-1.47,1.44-2.94,2.14-4.42,1.5-3.08,2.98-6.17,4.45-9.26,1.24-2.58,2.48-5.16,3.73-7.74,1.48-3.09,2.98-6.18,4.51-9.26,1.27-2.59,2.57-5.17,3.88-7.74,1.59-3.11,3.2-6.2,4.86-9.26,1.41-2.6,2.85-5.19,4.33-7.74,.47-.82,.94-1.64,1.42-2.45,1.34-2.27,2.67-4.54,4-6.81,1.52-2.58,3.04-5.16,4.57-7.74,1.84-3.1,3.69-6.19,5.56-9.26,1.59-2.59,3.19-5.18,4.81-7.74,1.97-3.11,3.97-6.2,6.02-9.26,1.74-2.6,3.52-5.18,5.34-7.74,.76-1.06,1.53-2.12,2.3-3.17,1.45-1.98,2.83-4.02,4.17-6.09,1.65-2.55,3.23-5.14,4.81-7.74,1.49-2.46,2.98-4.92,4.51-7.35,.43-.68,.72-1.32,.88-1.91,.61-2.24-.65-3.83-3.31-4.83-2.57-.97-5.13-1.96-7.71-2.91-2.34-.87-4.69-1.7-7.06-2.48-6.67-2.18-13.31-4.44-19.92-6.78-7.09-2.5-14.14-5.08-21.17-7.74-7.94-3-15.84-6.09-23.72-9.26-6.31-2.54-12.61-5.12-18.89-7.74-7.3-3.04-14.58-6.13-21.85-9.26-1.12-.48-2.25-.97-3.37-1.45-4.89-2.11-9.84-4.15-14.75-6.29-6.37-2.78-12.67-5.73-18.68-9.26-1.13-.66-2.24-1.34-3.35-2.04-3.06-1.95-6.59-3.19-9.99-4.57-1.81-.73-4.17-2.33-5.38,.56-.88,2.11,1.16,3.23,2.7,4.21,.95,.6,1.89,1.22,2.83,1.84,3.22,2.13,6.42,4.31,9.84,6.04,2.12,1.08,4.24,2.15,6.37,3.22,5.12,2.59,10.25,5.17,15.39,7.74,6.19,3.11,12.39,6.2,18.6,9.26,5.24,2.6,10.48,5.18,15.73,7.74,.97,.48,1.94,.96,2.91,1.43,4.33,2.11,6.8,4.43,7.39,7.83,.36,2.03,.06,4.45-.91,7.44-.03,.1-.06,.2-.1,.3-.99,3.08-1.94,6.16-2.85,9.26-.77,2.57-1.5,5.15-2.21,7.74-.85,3.08-1.66,6.16-2.44,9.26-.64,2.57-1.27,5.15-1.87,7.74-.72,3.08-1.41,6.16-2.07,9.26-.55,2.58-1.08,5.15-1.59,7.74-.61,3.08-1.2,6.17-1.76,9.26-.47,2.57-.93,5.15-1.36,7.74l-.33,1.92c-.41,2.45-.83,4.9-1.26,7.34-.45,2.58-.91,5.16-1.38,7.74-.56,3.09-1.12,6.17-1.68,9.26-.46,2.58-.93,5.16-1.38,7.74-.55,3.08-1.08,6.17-1.58,9.26-.43,2.58-.84,5.16-1.22,7.74-.46,3.08-.89,6.17-1.28,9.26-.33,2.58-.62,5.15-.88,7.74-.31,3.08-.58,6.16-.79,9.26-.1,1.54-.19,3.08-.26,4.63-.06,1.13-.26,2.17-.59,3.11-1.21,3.62-4.19,5.93-7.55,7.67-1.05,.54-2.11,1.07-3.17,1.59-6.16,2.99-12.5,5.55-18.94,7.74-9.77,3.33-19.8,5.83-29.92,7.81-2.53,.49-5.06,.98-7.59,1.45-15.85,2.96-31.78,5.52-47.76,7.74-4.29,.61-8.58,1.18-12.88,1.74-22.82,2.94-45.77,5.22-68.74,6.74-10.79,.71-15.7-1.39-18.48-8.48-.83-2.12-1.46-4.68-2.02-7.74-.07-.44-.15-.88-.22-1.34-.43-2.61-.72-5.27-.87-7.92-.08-1.27-.12-2.54-.13-3.8,0-1.31,0-2.63-.02-3.94,0-3.06-.02-6.14-.03-9.26,0-2.54-.01-5.12,0-7.74-.01-3.02-.01-6.1-.01-9.26v-7.74c0-3,0-6.08,.01-9.26v-16.26c-.01-.25-.03-.49-.04-.74-.13-2.53-.23-5.11-.32-7.74-.08-3.03-.15-6.12-.18-9.26-.02-2.54-.03-5.13-.02-7.74,0-3.05,.03-6.13,.08-9.26,.04-2.56,.09-5.14,.16-7.74,.07-3.06,.16-6.14,.25-9.26,.09-2.56,.18-5.14,.27-7.74,.12-3.07,.24-6.15,.37-9.26,.1-2.57,.21-5.15,.33-7.74,.13-3.08,.27-6.16,.41-9.26,.12-2.58,.23-5.16,.35-7.74l.33-7.44c.03-.61,.05-1.21,.09-1.82,.11-2.58,.24-5.16,.39-7.74,.16-3.09,.34-6.18,.55-9.26,.16-2.58,.34-5.16,.54-7.74,.22-3.09,.46-6.17,.72-9.26,.22-2.58,.45-5.16,.69-7.74,.29-3.09,.59-6.18,.92-9.26,.27-2.58,.55-5.16,.84-7.74,.36-3.09,.73-6.17,1.12-9.26,.32-2.58,.66-5.16,1.02-7.74,.41-3.09,.85-6.18,1.31-9.26,.38-2.58,.77-5.16,1.19-7.74,.48-3.09,.99-6.17,1.52-9.26,.43-2.58,.89-5.16,1.37-7.74,.55-3.09,1.13-6.18,1.73-9.26,.05-.28,.11-.56,.16-.84,.52-2.63,1.02-4.92,1.56-6.9,1.18-4.31,2.55-7.22,4.66-9.26,3.31-3.18,8.41-4.25,17.41-5.25,4.67-.52,9.21-1.37,13.67-2.49,8.86-2.23,17.35-5.52,25.67-9.26,5.43-2.44,10.77-5.07,16.1-7.74,1.33-.67,2.66-1.33,3.99-2,4.63-2.33,9.22-4.75,13.77-7.26,4.55-2.5,9.05-5.08,13.5-7.74,2.35-1.4,4.68-2.81,7-4.25,2.55-1.58,5.04-3.24,7.45-5.01,3.35-2.41,6.57-5,9.64-7.74,3.29-2.92,6.41-6.01,9.36-9.26,2.28-2.49,4.45-5.07,6.51-7.74,1.65-2.11,3.23-4.28,4.75-6.49,.63-.92,1.26-1.84,1.88-2.77,1.72-2.55,3.4-5.13,5.02-7.74,1.89-3.04,3.71-6.12,5.4-9.26,1.38-2.54,2.68-5.11,3.88-7.74,1.39-3.02,2.66-6.1,3.77-9.26,.9-2.53,1.69-5.11,2.37-7.74,.09-.33,.18-.66,.26-.99,.69-2.77,.94-5.52,1.08-8.27,.13-2.58,.16-5.15,.35-7.74,0-.12,.01-.23,.02-.35,.54-7.12,3.38-8.92,10.43-7.46,6.98,1.45,13.27,4.45,19.38,7.81,4.66,2.55,9.21,5.31,13.87,7.74,.45,.24,.91,.47,1.36,.7,5.42,2.73,10.88,5.56,16.27,8.56,4.41,2.44,8.77,5.01,13.03,7.74,.49,.3,.99,.62,1.48,.94,4.27,2.78,8.54,5.54,12.8,8.32,3.93,2.57,7.86,5.14,11.77,7.74,4.59,3.04,9.16,6.12,13.69,9.26,3.68,2.53,7.33,5.11,10.96,7.74,4.18,3.01,8.31,6.09,12.4,9.26,1.96,1.51,3.91,3.04,5.85,4.6,1.31,1.05,2.61,2.09,3.91,3.14,3.81,3.07,7.61,6.16,11.39,9.26,3.13,2.57,6.24,5.15,9.34,7.74,3.65,3.06,7.28,6.14,10.88,9.26,2.97,2.55,5.91,5.13,8.84,7.74,3.44,3.05,6.85,6.13,10.22,9.26,2.77,2.55,5.52,5.13,8.24,7.74,3.18,3.05,6.33,6.13,9.44,9.26,1.21,1.21,2.41,2.43,3.61,3.66,1.32,1.36,2.64,2.72,3.95,4.08,2.98,3.07,5.92,6.15,8.85,9.26,2.42,2.56,4.84,5.15,7.23,7.74,2.84,3.07,5.66,6.15,8.45,9.26,2.31,2.56,4.61,5.14,6.89,7.74,2.7,3.06,5.38,6.15,8.03,9.26,2.21,2.57,4.39,5.14,6.55,7.74,2.57,3.06,5.1,6.15,7.6,9.26,2.1,2.57,4.16,5.15,6.19,7.74,2.43,3.07,4.82,6.15,7.18,9.26,1.96,2.56,3.9,5.14,5.81,7.74,.66,.87,1.3,1.75,1.95,2.63,1.61,2.19,3.15,4.4,4.65,6.63,1.73,2.56,3.38,5.14,5,7.74,1.9,3.06,3.73,6.15,5.54,9.26,0,.02,.02,.03,.03,.05,1.46,2.52,2.57,5.08,3.38,7.69,.95,3.04,1.49,6.13,1.69,9.26,.17,2.56,.12,5.14-.14,7.74Z"/><path class="e" d="M999.97,309.92c-.1-1.59-.26-3.17-.49-4.73-.37-2.63-.9-5.21-1.6-7.74-.87-3.18-1.99-6.27-3.34-9.26-1.2-2.67-2.58-5.25-4.14-7.74-.43-.7-.88-1.4-1.35-2.09-1.65-2.45-3.36-4.84-5.12-7.17-2-2.65-4.07-5.24-6.21-7.74-2.73-3.21-5.58-6.29-8.55-9.26-2.69-2.68-5.47-5.26-8.35-7.74-3.78-3.27-7.74-6.36-11.86-9.26-3.71-2.62-7.55-5.1-11.53-7.42-.18-.11-.36-.21-.53-.32-5.03-3.06-6.56-5.98-4.74-9.26,.83-1.49,2.35-3.04,4.55-4.73,1.45-1.1,3.25-1.78,4.65-2.94,.03-.02,.06-.05,.09-.07,3.68-3.05,7.71-5.93,11.14-9.26,2.36-2.29,4.45-4.81,5.94-7.74,.58-1.14,1.07-2.35,1.46-3.63,.55-1.84,.88-3.72,1-5.63,.16-2.57-.05-5.17-.59-7.74-.65-3.17-1.81-6.3-3.36-9.26-1.45-2.76-3.25-5.38-5.32-7.74-3.42-3.91-7.58-7.15-12.14-9.26-3.47-1.61-7.16-2.57-10.93-2.69-7.63-.24-15.02,.8-22.24,2.69-4.65,1.21-9.23,2.77-13.75,4.57-12.79,5.09-28.43,3.28-39.38-4.57-1.63-1.17-3.15-2.47-4.55-3.9-1.26-1.29-2.53-2.58-3.81-3.84-3.32-3.3-6.74-6.46-10.42-9.26-3.4-2.62-7.02-4.92-10.98-6.74-.73-.34-1.47-.67-2.21-1-9.32-4.16-19.11-7.52-29.52-4.67-4.6,1.26-9.13,2.86-13.57,4.67-3.11,1.25-6.17,2.6-9.2,4-3.67,1.7-7.25,2.94-10.78,3.74-6.48,1.48-12.81,1.46-19.29,0-4.76-1.06-9.6-2.9-14.65-5.5-1.56-.8-3.04-1.55-4.43-2.24-15.32-7.63-21.06-8.5-31.7,0-2.45,1.96-5.15,4.42-8.3,7.4-.12,.11-.24,.23-.36,.34-3.24,3.08-6.47,6.16-9.68,9.26-2.66,2.56-5.31,5.14-7.94,7.74-3.1,3.05-6.17,6.13-9.2,9.26-2.48,2.55-4.93,5.13-7.34,7.74-1.25,1.35-2.49,2.7-3.72,4.07-1.77,1.97-3.02,3.66-3.72,5.19-1.32,2.88-.68,5.19,2.1,7.74,.9,.83,2.03,1.68,3.39,2.59,1.81,1.2,5.39,1.92,3.15,4.88-.5,.67-1.06,1.05-1.63,1.23-1.3,.39-2.63-.45-5.22-2.12-1.66-1.06-1.41-1.09-1.79-1.22-1.66-.56-3.64,.8-6.93,3.9-1.43,1.34-3.11,3.02-5.11,5.01-1.09,1.08-2,1.98-2.77,2.73-2.99,2.93-3.84,3.59-4.26,3.33-.46-.28-.36-1.62,.18-3.33,.43-1.4,1.15-3.04,2.08-4.54,.77-1.25,1.63-2.3,2.52-3.2,4.18-4.24,9.01-5.05,8.8-6.95-.08-.81-1.05-1.64-2.59-2.31-2.99-1.31-8.15-2.05-13.13-.91-1.04,.24-2.09,.53-3.13,.91-4.02,1.45-8.01,4.1-11.83,9.26-.88,1.18-1.74,2.49-2.6,3.95-.74,1.26-1.47,2.52-2.19,3.79-1.76,3.06-3.46,6.15-5.11,9.26-1.37,2.56-2.71,5.15-4,7.74-1.55,3.07-3.04,6.15-4.48,9.26-1.2,2.57-2.36,5.15-3.5,7.74-1.34,3.07-2.64,6.15-3.89,9.26-1.04,2.56-2.05,5.15-3.02,7.74-1.17,3.07-2.29,6.15-3.36,9.26-.89,2.57-1.76,5.15-2.58,7.74-.68,2.09-1.33,4.18-1.97,6.29-.3,.99-.59,1.98-.88,2.97-.75,2.57-1.47,5.15-2.16,7.74-.82,3.07-1.58,6.16-2.3,9.26-.61,2.57-1.17,5.15-1.7,7.74-.63,3.08-1.21,6.16-1.73,9.26-.45,2.57-.85,5.15-1.2,7.74-.09,.62-.18,1.25-.26,1.87-.32,2.46-.59,4.92-.79,7.39-.23,2.57-.38,5.15-.49,7.74-.13,3.08-.18,6.17-.18,9.26,0,2.58,.05,5.16,.13,7.74,.1,3.09,.25,6.17,.43,9.26,.09,1.61,.2,3.22,.31,4.83,.07,.97,.14,1.94,.22,2.91,.24,3.1,.51,6.19,.84,9.26,.27,2.59,.58,5.17,.93,7.74,.42,3.1,.89,6.19,1.45,9.26,.45,2.59,.96,5.17,1.52,7.74,.69,3.11,1.45,6.19,2.31,9.26,.72,2.6,1.51,5.18,2.37,7.74t.01,.02c1.05,3.1,2.13,6.18,3.26,9.24,.95,2.6,1.94,5.18,2.95,7.74,1.23,3.11,2.5,6.2,3.82,9.26,1.12,2.6,2.28,5.18,3.47,7.74,1.44,3.12,2.94,6.2,4.5,9.26,1.32,2.61,2.67,5.19,4.07,7.74,1.7,3.12,3.46,6.2,5.29,9.26,1.56,2.6,3.16,5.18,4.82,7.74,2.02,3.13,4.11,6.21,6.28,9.26,1.84,2.61,3.75,5.19,5.72,7.74,.99,1.3,2,2.59,3.03,3.87,1.47,1.84,2.98,3.64,4.54,5.39,2.34,2.67,4.77,5.25,7.29,7.74,3.23,3.23,6.59,6.32,10.06,9.26,3.15,2.7,6.39,5.27,9.7,7.74,4.24,3.2,8.61,6.23,13.07,9.12,.07,.05,.15,.09,.22,.14,4.18,2.71,8.44,5.3,12.8,7.74,6.11,3.44,12.4,6.57,18.86,9.26,2.87,1.2,5.76,2.31,8.69,3.32,4.27,1.47,8.54,2.98,12.83,4.42,14.81,4.97,29.85,9.16,45.94,8.45,7.99-.35,16.01-.06,24.93-.06-.11,.31-.23,.6-.35,.87-1.44,3.22-3.27,3.41-4.77,4.08-7.21,3.25-15.08,2.56-22.65,3.66-1.22,.17-2.42,.39-3.62,.68-2.62,.63-6.76-.57-6.92,3.38-.17,4.1,3.84,4.26,6.95,4.68,1.44,.19,2.87,.37,4.31,.52,9.41,.99,18.75,1.05,28.16,0,3.24-.35,6.48-.84,9.74-1.47,9.68-1.86,18.98-4.39,27.8-7.79,5.72-2.2,11.23-4.76,16.52-7.74,4.84-2.72,9.49-5.8,13.92-9.26,3.07-2.39,6.03-4.96,8.88-7.74,2.13-2.06,4.19-4.24,6.19-6.53,.81-.93,1.67-1.83,2.54-2.73,2.43-2.5,5-4.96,7.1-7.74,2.03-2.68,3.62-5.66,4.23-9.26,.08-.48,.15-.97,.19-1.47,.21-2.34,.32-4.66-1.58-6.27-.08-.07-.16-.14-.24-.2-1.82-1.37-3.36-.81-4.75,.2-.51,.37-1,.81-1.48,1.23-3.84,3.4-8.23,5.26-12.83,6.51-4.16,1.15-8.49,1.78-12.74,2.63-1.73,.34-4.06,.79-4.95-1.21-.24-.55-.32-1.02-.26-1.42,.18-1.56,2.14-2.29,3.27-3.36,1.64-1.55,3.36-3,5.13-4.38,4.16-3.28,8.57-6.2,12.9-9.26,2.8-1.98,5.57-4.02,8.2-6.24,.59-.5,1.18-1,1.76-1.5,3.59-3.05,7.14-6.13,10.64-9.26,2.85-2.54,5.67-5.11,8.44-7.74,3.23-3.01,6.4-6.1,9.48-9.26,2.49-2.53,4.93-5.11,7.31-7.74,2.73-3.01,5.39-6.09,7.97-9.26,2.06-2.52,4.07-5.1,6.02-7.74,1.09-1.48,2.17-2.98,3.23-4.5,1.12-1.61,2.2-3.22,3.31-4.76,2.09-2.94,4.25-5.65,6.82-7.74,4.06-3.31,9.15-5.06,16.64-3.66,8.26,1.55,15.97-.97,22.9-5.6,2-1.34,3.94-2.85,5.81-4.5,1.16-1.02,2.27-2.1,3.33-3.24,2.61-2.79,4.93-5.91,6.91-9.26,1.45-2.47,2.73-5.06,3.79-7.74,1.2-3,2.14-6.11,2.78-9.26,.53-2.56,.87-5.15,.99-7.74,.15-3.11,0-6.22-.47-9.26-.42-2.64-1.09-5.24-2.02-7.74-.82-2.2-1.84-4.32-3.07-6.36-.62-1.03-1.31-1.99-2.05-2.9-2.2-2.74-4.79-5.09-7.06-7.74-.37-.42-.72-.85-1.07-1.29-2.26-2.89-3.73-5.73-1.94-7.97,.71-.89,1.93-1.68,3.82-2.34,2.94-1.04,4.06-2.96,3.88-5.4-.05-.68-.21-1.41-.45-2.16-.76-2.42-1.58-4.78-2.55-7.1-1.02-2.47-2.23-4.88-3.74-7.22-.11-.17-.23-.35-.34-.52-2.1-3.21-4.35-6.28-6.7-9.26-2.1-2.65-4.29-5.22-6.54-7.74-2.82-3.16-5.74-6.23-8.71-9.26-2.54-2.6-5.12-5.17-7.7-7.74-3.09-3.07-6.18-6.14-9.21-9.26-.21-.21-.41-.41-.61-.62-2-2.06-4.01-4.15-5.77-6.42-.17-.22-.34-.45-.51-.7-.88-1.29-1.51-2.82,.16-4.15,1.37-1.09,3.11-.6,4.4,.4,1.61,1.25,3.22,2.5,4.83,3.75,3.29,2.55,6.56,5.11,9.75,7.74,3.58,2.96,7.04,6.01,10.29,9.26,2.46,2.45,4.8,5.02,6.95,7.74,2.32,2.9,4.44,5.97,6.3,9.26,1.39,2.45,2.64,5.02,3.72,7.74,.59,1.47,1.13,2.98,1.62,4.54,.53,1.68,1.25,3.24,2.11,4.72,1.59,2.78,3.66,5.29,5.77,7.74,.19,.22,.39,.45,.59,.68,1.53,1.77,3.6,2.25,5.67,.98,.73-.44,1.19-1.02,1.44-1.66,.39-.99,.28-2.14-.1-3.24-.52-1.49-.99-3-1.48-4.5-.9-2.75-1.86-5.47-3.22-7.96-.24-.43-.48-.87-.72-1.3-1.44-2.62-2.93-5.2-4.47-7.74-1.9-3.14-3.87-6.23-5.91-9.26-1.75-2.62-3.55-5.2-5.41-7.74-2.29-3.14-4.66-6.23-7.12-9.26-2.1-2.62-4.27-5.2-6.51-7.74-2.76-3.15-5.61-6.24-8.55-9.26-2.54-2.63-5.16-5.22-7.84-7.74-.75-.72-1.5-1.43-2.26-2.13-2.47-2.29-4.87-4.69-7.21-7.13-1.29-1.34-2.57-2.7-3.84-4.07-1.02-1.09-1.81-2.36-1.8-3.67,0-.86,.35-1.74,1.21-2.61,2.04-2.04,4.45-1.44,6.43,.12,1.07,.83,2.14,1.66,3.21,2.49,2.88,2.23,5.72,4.51,8.25,7.07,.22,.22,.44,.45,.66,.67,2.99,3.03,5.92,6.12,8.76,9.26,2.29,2.54,4.52,5.11,6.67,7.74,2.48,3.02,4.87,6.1,7.14,9.26,1.81,2.53,3.54,5.1,5.19,7.74,1.89,3.01,3.66,6.09,5.31,9.26,1.3,2.53,2.53,5.1,3.67,7.74,.95,2.19,1.83,4.42,2.65,6.69,.31,.88,.67,1.78,1.14,2.57,.98,1.72,2.43,2.96,4.87,2.5,1.76-.33,2.66-1.29,3.1-2.5,.51-1.36,.43-3.05,.33-4.53Zm-191.4-117.41c2.82-4.81,10.48-6.6,14.46-3.26,2.36,1.98,4.67,4.04,6.89,6.2,2.48,2.39,4.84,4.91,7.02,7.54,.05,.07,.11,.13,.16,.2,2.44,2.97,4.7,6.09,6.91,9.26,1.78,2.57,3.53,5.17,5.31,7.74,.42,.6,.83,1.2,1.25,1.79,.89,1.27,1.56,2.7,2.21,3.85,0,2.84-1.44,3.78-3.49,2.59-1.98-1.16-3.67-2.9-5.32-4.55-1.22-1.22-2.43-2.45-3.64-3.68-2.6-2.64-5.21-5.26-7.92-7.74-3.75-3.44-7.7-6.63-12.13-9.26-1.92-1.15-3.94-2.2-6.06-3.11-2.11-.9-6.85-1.28-6.69-4.63,.03-.79,.35-1.76,1.04-2.94Zm-191.02,78.68c.31-2.61,.83-5.2,1.63-7.74,.94-3.02,2.26-5.99,4.05-8.88,.08-.13,.16-.26,.25-.38,4.41-6.67,11.34-6.47,15.4,0,.27,.43,.53,.9,.78,1.39,.84,1.67,1.66,4.73,2.27,7.87,.48,2.37,.84,4.81,1,6.72-.06,.34-.11,.68-.17,1.02-.51,3.08-.99,6.17-1.49,9.26-.42,2.58-.85,5.16-1.33,7.74-.22,1.2-.44,2.39-.68,3.58-.46,2.3-1.29,4.23-2.55,5.68-1.72,1.99-4.26,3.09-7.78,3.01-3.31-.07-6-1.15-7.86-3.01-1.44-1.44-2.39-3.37-2.72-5.68-.18-1.19-.34-2.38-.49-3.58-.31-2.58-.54-5.17-.63-7.74-.13-3.11-.05-6.21,.32-9.26Zm45.2,74.24c-1.35-2.17-2.14-4.24-2.33-6.24-.27-2.69,.54-5.25,2.5-7.74,.56-.72,1.23-1.43,1.99-2.14,2.51-2.34,4.99-4.71,7.42-7.12,2.57-2.53,5.09-5.11,7.53-7.74,2.82-3.01,5.53-6.09,8.14-9.26,2.07-2.52,4.07-5.1,5.97-7.74,2.18-3,4.24-6.08,6.17-9.26,.92-1.5,1.8-3.02,2.66-4.57,.58-1.05,1.16-2.11,1.74-3.17,1.69-3.08,3.35-6.17,5-9.26,1.22-2.26,2.43-4.52,3.64-6.78,.16-.3,.31-.63,.47-.96,.55-1.15,1.18-2.27,2.63-2.03,1.21,.2,1.57,1.05,1.68,2.03,.09,.6,.07,1.26,.12,1.84,.17,2.06,0,4.02-.39,5.9-.68,3.26-2.05,6.31-3.59,9.26-1.05,2.02-2.17,3.99-3.2,5.96-.31,.59-.62,1.19-.94,1.78-1.63,3.1-3.29,6.19-4.98,9.26-1.42,2.59-2.86,5.17-4.32,7.74-1.74,3.1-3.51,6.19-5.29,9.26-1.5,2.59-3.01,5.17-4.53,7.74-1.82,3.1-3.65,6.18-5.49,9.26-.22,.37-.44,.74-.66,1.11-1.39,2.32-2.17,4.51-2.45,6.63-.44,3.23,.28,6.27,1.74,9.26,.73,1.49,1.64,2.97,2.69,4.45,.78,1.1,1.56,2.19,2.34,3.29,1.79,2.52,3.58,5.04,5.36,7.57,.4,.56,.86,1.12,1.29,1.69,1.15,1.54,2.04,3.16,.67,5.26-1.69,2.57-4.63,1.98-8.97,2.33-4.59,.67-8.55-3.09-11.75-7.59-.05-.07-.09-.13-.14-.2-2.08-2.97-4.07-6-6.01-9.06-1.63-2.56-3.24-5.15-4.84-7.74-.62-1.01-1.25-2.01-1.87-3.02Zm50.19,146.76c-.2,2.4-1.49,4.34-3.87,5.48-2.64,1.27-5.92,1.4-7.89,3.78-.4,.48-.74,1.06-1.02,1.75-.39,.99-1.83,1.32-2.71,.66-1.21-.9-2.49-1.69-3.81-2.41-5.73-3.15-12.3-5.08-17.7-9.26-2.38-1.84-4.52-4.13-6.27-7.15,12.9,0,25.26-.12,37.61,.08,3.14,.05,5.32,2.18,5.64,5.49,.05,.54,.06,1.07,.02,1.58Zm114.43-70.34c-.23,.78-.46,1.56-.68,2.34-.89,3.07-1.71,6.16-2.5,9.26-.66,2.58-1.31,5.16-1.95,7.74-.61,2.4-1.21,4.8-1.84,7.19-.18,.69-.35,1.47-.67,2.07-.38,.72-.99,1.2-2.09,1.01-.76-.13-1.19-.51-1.43-1.01-.41-.81-.35-1.93-.41-2.86-.12-2.13-.05-4.28-.16-6.4-.02-.49-.05-.98-.1-1.46-.25-2.51-.91-4.63-1.88-6.28-2.78-4.74-8.15-5.75-14.09-1.54-.73,.52-1.46,1.03-2.2,1.54-3.85,2.69-7.76,5.27-11.73,7.74-5.3,3.3-10.71,6.4-16.24,9.26-5.26,2.73-10.63,5.23-16.13,7.48-.22,.09-.44,.18-.66,.26-9.95,4.02-20.29,6.84-30.73,9.26-6.68,1.55-13.4,2.94-20.1,4.38-2.17,.47-4.68-.31-6.97-.82-4.74-1.06-9.44-2.24-14.08-3.56-9-2.55-17.8-5.63-26.37-9.26-5.53-2.34-10.96-4.92-16.29-7.74-3.65-1.92-7.25-3.97-10.8-6.13-2.08-1.26-4.34-2.26-6.66-3.13-1.38-.52-2.77-.99-4.15-1.45-2.86-.95-5.59-.77-7.26,1.45-.42,.56-.78,1.25-1.05,2.09-1.78,5.49-3.55,3.38-6.16,.49-.76-.83-1.47-1.7-2.13-2.58-1.88-2.44-3.47-5.06-4.91-7.74-1.37-2.55-2.6-5.16-3.83-7.75-.23-.49-.43-.99-.6-1.51-.78-2.34-.98-4.99-.7-7.74,.3-3.07,1.19-6.25,2.53-9.26,1.25-2.81,2.88-5.48,4.79-7.74,1.97-2.34,4.23-4.25,6.64-5.48,3.65-1.86,4.25,.66,4.42,3.06,.06,.85,.16,1.66,.3,2.42,.59,3.39,1.88,5.88,3.72,7.74,3.28,3.31,8.28,4.6,14.13,5.34,7.18,.91,14.26,2.47,21.36,3.92,4.18,.86,8.37,1.68,12.58,2.32,19.59,2.94,38.99,2.2,58.36-2.32,.81-.19,1.62-.39,2.43-.59,14.18-3.53,28.94-4.53,43-8.67,4.48-1.31,8.88-2.95,13.17-5.09,1.64-.82,3.11-1.68,4.37-2.65,2.85-2.2,4.58-4.98,4.66-9.26,.01-.19,.01-.38,.01-.58-.47-2.38-.88-4.78-1.42-7.16-.03-.17-.07-.33-.11-.5-.4-1.71-1.82-3.56,.28-4.93,1.72-1.13,3.57-.24,5.23,.56,2.68,1.29,5.04,2.98,7.24,4.87,2.86,2.43,5.47,5.17,8.23,7.74,1.82,1.69,3.7,3.31,5.76,4.71,1.98,1.35,3.8,2.93,5.6,4.55,1.13,1.02,2.25,2.05,3.4,3.04,1.73,1.49,3.24,3.04,4.45,4.7,2.02,2.73,3.22,5.76,3.25,9.26,0,1.68-.25,3.48-.83,5.4Zm125.8-99.66c2.75,2.76,5.47,5.53,8.17,8.32,.28,.29,.55,.61,.79,.94,.98,1.31,1.72,2.89,2.37,4.39,.48,1.08,.77,2.41,.03,3.35-.21,.28-.51,.53-.93,.72-1.08,.51-2.01,0-2.73-.72-.22-.22-.43-.46-.61-.7-1.86-2.42-3.78-4.77-5.78-7.04-2.83-3.23-5.8-6.31-8.91-9.26-2.83-2.69-5.77-5.27-8.81-7.74-.98-.8-1.97-1.59-2.97-2.37-1.02-.8-1.94-1.89-1.55-3.34,.44-1.61,1.89-1.52,2.97-1.6,2.46,.13,4.18,1.29,5.69,2.79,1.51,1.51,3.03,3.01,4.54,4.52,2.59,2.58,5.17,5.15,7.73,7.74Zm-112.27-32.16c0,3.23-.24,5.68-.78,7.42-1.35,4.33-4.58,4.33-10.66,1.29-.79-.4-1.56-.83-2.3-1.29-4.49-2.75-8.29-6.47-12.84-9.26-1.4-.87-2.87-1.64-4.46-2.27-4.27-1.71-8.41-3.7-12.63-5.47-5.6-2.37-11.33-4.35-17.62-4.77-1.98-.13-4.49-.57-4.92-3.13-.09-.52-.06-.97,.05-1.36,.44-1.62,2.29-2.29,3.73-3.03,3.44-1.78,7.25-3.44,11.28-4.71,9-2.86,19.15-3.82,29.05,0,4.23,1.63,8.41,4.14,12.44,7.74,.56,.5,1.12,1.02,1.67,1.57,2.44,2.4,4.22,5.02,5.48,7.69,1.23,2.6,1.96,5.23,2.31,7.74,.09,.62,.16,1.24,.2,1.84Z"/><path class="e" d="M988.33,1087.19c.03,3.52-.21,6.57-.78,9.26-.6,2.97-1.6,5.51-3.07,7.74-2.45,3.77-6.23,6.65-11.66,9.26-2.02,.98-4.28,1.92-6.78,2.85-4.68,1.75-9.38,3.37-14.12,4.89-10.52,3.41-21.16,6.37-31.81,9.26-6.99,1.89-13.99,3.75-20.97,5.68-3.14,.87-6.31,1.54-9.5,2.06-9.21,1.51-18.55,1.86-27.79,2.79-30.99,3.14-61.98,7.14-93.98,4.75-32.72,3.12-65.59-1.84-98.14-7.54-1.68-.29-3.37-.59-5.05-.89-9.02-1.6-18.07-3.94-27-6.85-8.08-2.62-16.07-5.7-23.85-9.09-.13-.06-.27-.12-.4-.17-6.05-2.63-12.15-5.11-18.2-7.74-5.29-2.3-10.54-4.71-15.7-7.43-1.13-.59-2.21-1.2-3.27-1.83-3.88-2.3-7.26-4.84-10.14-7.74-2.71-2.72-4.97-5.77-6.76-9.26-1.23-2.37-2.24-4.93-3.04-7.74-.08-.29-.16-.58-.24-.87-.74-2.79-1.43-5.59-2.09-8.39-.6-2.58-1.17-5.16-1.71-7.74-.64-3.08-1.24-6.17-1.81-9.26-.47-2.57-.91-5.16-1.34-7.74-.5-3.08-.97-6.16-1.41-9.26-.37-2.58-.72-5.16-1.05-7.74-.39-3.09-.76-6.17-1.11-9.26-.3-2.58-.57-5.16-.84-7.74-.32-3.08-.63-6.17-.92-9.26-.13-1.4-.26-2.8-.39-4.2-.11-1.18-.22-2.36-.34-3.54-.3-3.08-.61-6.17-.86-9.26-.12-1.47-.23-2.94-.31-4.41-.06-1.08-.15-2.23-.1-3.33,.09-2.05,.67-3.96,2.84-5.13,3.75-2.04,7.25-.36,10.15,2.05,1.28,1.06,2.58,2.09,3.89,3.08,3.62,2.77,7.36,5.33,11.2,7.74,5.29,3.32,10.75,6.36,16.3,9.26,4.06,2.13,8.17,4.18,12.28,6.21,1.06,.52,2.12,1.03,3.2,1.53,6.27,2.91,12.73,5.43,19.06,8.23,.94,.42,1.87,.76,2.79,1.03,3.92,1.18,7.57,1.08,10.74,0,4.37-1.49,7.84-4.84,9.82-9.26,1.04-2.32,1.68-4.94,1.82-7.74,.06-1.05,.05-2.12-.04-3.21-.16-2.02-.32-4.03-.48-6.05-.21-2.58-.43-5.16-.64-7.74-.25-3.09-.51-6.17-.76-9.26-.21-2.58-.42-5.16-.62-7.74-.24-3.09-.47-6.17-.69-9.26-.19-2.58-.36-5.16-.52-7.74-.2-3.08-.38-6.17-.54-9.26-.13-2.58-.24-5.16-.33-7.74-.13-3.09-.22-6.17-.28-9.26-.05-2.58-.08-5.16-.08-7.74-.01-3.09,0-6.17,.08-9.26,.04-2.07,.1-4.13,.18-6.2,.02-.51,.04-1.03,.06-1.54,.12-3.09,.25-6.17,.38-9.26,.11-2.58,.23-5.16,.35-7.74,.14-3.08,.29-6.17,.46-9.26,.13-2.58,.26-5.16,.41-7.74,.17-3.09,.35-6.17,.53-9.26,.16-2.58,.32-5.16,.49-7.74,.2-3.09,.41-6.17,.64-9.26,.17-2.58,.36-5.16,.56-7.74,.24-3.09,.48-6.17,.74-9.26,.21-2.58,.44-5.16,.67-7.74,.27-3.09,.55-6.18,.85-9.26,.22-2.27,.44-4.53,.67-6.8,.03-.31,.06-.63,.1-.94,.32-3.09,.66-6.18,1.03-9.26,.3-2.59,.62-5.17,.96-7.74,.4-3.09,.82-6.18,1.27-9.26,.38-2.58,.77-5.16,1.18-7.74,.49-3.09,1-6.18,1.54-9.26,.44-2.59,.9-5.17,1.39-7.74,.57-3.09,1.17-6.18,1.79-9.26,.52-2.58,1.06-5.16,1.61-7.74,.34-1.55,.68-3.1,1.02-4.64,.34-1.54,.66-3.07,.95-4.62,.5-2.57,.94-5.15,1.37-7.74,.5-3.08,.98-6.17,1.48-9.26,.42-2.58,.85-5.16,1.33-7.74,.58-3.1,1.23-6.19,1.99-9.26,.5-2.01,1.05-4,1.67-5.99,.18-.59,.34-1.17,.48-1.75,.74-3.23,.73-6.3,.12-9.26-.55-2.66-1.59-5.24-3.01-7.74-1.48-2.64-3.38-5.21-5.55-7.73-.44-.51-.87-1.02-1.3-1.53-2.12-2.52-4.18-5.1-6.13-7.74-2.22-3-4.31-6.08-6.21-9.26-1.51-2.51-2.91-5.09-4.16-7.74-1.41-2.99-2.65-6.07-3.68-9.26-.81-2.51-1.49-5.09-2.02-7.74-.08-.4-.16-.79-.23-1.19-.49-2.69-.78-5.38-.9-8.07-.12-2.59-.07-5.17,.13-7.74,.24-3.11,.69-6.2,1.33-9.26,.32-1.52,.68-3.04,1.09-4.55,.32-1.2,.67-2.26,1.04-3.19,3.03-7.56,7.91-6.93,17.08-4.49,3.97,1.06,7.5,2.6,10.71,4.49,3.75,2.19,7.08,4.85,10.19,7.74,3.16,2.92,6.09,6.09,9.03,9.26,2.43,2.63,4.85,5.26,7.41,7.74,1.09,1.07,2.2,2.11,3.34,3.11,2.55,2.25,5.39,4.14,8.07,6.15,1.04,.78,2.06,1.58,3.03,2.43,2.39,2.09,4.85,3.84,7.4,5.31,10.92,6.33,23.19,7.49,35.99,7.64,16.03,.2,32.34,.82,47.77-2.89,5.53-1.33,10.91-2.9,16.14-4.75,6.24-2.19,12.25-4.75,18-7.74,5.27-2.73,10.33-5.81,15.14-9.26,3.34-2.4,6.56-4.97,9.66-7.74,3.23-2.88,6.32-5.96,9.26-9.26,2.21-2.46,4.32-5.04,6.35-7.74,1.23-1.62,2.42-3.29,3.58-5,.95-1.4,1.84-2.82,2.68-4.26,1.5-2.53,2.85-5.11,4.07-7.74,1.41-3.03,2.66-6.12,3.8-9.26,.92-2.55,1.77-5.13,2.57-7.74,.63-2.06,1.24-4.14,1.82-6.23,.31-1.11,.66-2.12,1.06-3.03,2.38-5.56,6.37-7.41,13.42-6.28,7.42,1.18,14.43,3.55,21.31,6.28,6.75,2.68,13.38,5.71,20.14,8.31,.7,.27,1.32,.59,1.88,.95,2.82,1.8,3.88,4.63,3.99,7.74,.06,1.79-.19,3.66-.61,5.49-.29,1.27-.59,2.52-.92,3.77-.66,2.62-1.39,5.2-2.19,7.74-.98,3.15-2.06,6.23-3.23,9.26-1.01,2.63-2.08,5.2-3.24,7.74-1.41,3.15-2.93,6.24-4.56,9.26-1.4,2.63-2.88,5.2-4.44,7.74-1.93,3.15-3.98,6.24-6.14,9.26-1.86,2.63-3.81,5.21-5.84,7.74-2.54,3.16-5.19,6.25-7.97,9.26-2.41,2.63-4.91,5.21-7.5,7.74-2.46,2.41-5,4.77-7.61,7.09-.83,.73-1.66,1.45-2.49,2.17-3.17,2.71-6.41,5.29-9.72,7.74-4.43,3.3-8.99,6.38-13.65,9.26-4.44,2.75-8.98,5.32-13.61,7.74-6.43,3.37-13.03,6.44-19.77,9.26-5.55,2.32-11.19,4.48-16.9,6.5-1.12,.4-2.24,.82-3.36,1.24-4.09,1.51-8.23,2.88-12.65,2.28-10.13-1.39-18.09,1.35-23.93,6.98-2.26,2.17-4.2,4.77-5.82,7.74-1.54,2.79-2.8,5.9-3.78,9.26-.62,2.14-1.13,4.38-1.53,6.71-.06,.34-.12,.69-.17,1.03-.52,3.08-1,6.17-1.43,9.26-.37,2.58-.71,5.16-1.02,7.74-.39,3.09-.75,6.17-1.08,9.26-.3,2.58-.57,5.16-.83,7.74-.33,3.09-.64,6.17-.95,9.26-.26,2.58-.52,5.16-.79,7.74-.33,3.09-.66,6.18-1.02,9.26-.29,2.58-.6,5.16-.93,7.74-.28,2.21-.58,4.42-.89,6.63-.13,.88-.25,1.75-.37,2.63-.36,2.58-.71,5.16-1.05,7.74-.4,3.08-.79,6.17-1.16,9.26-.32,2.58-.62,5.16-.91,7.74-.34,3.08-.68,6.17-.99,9.26-.26,2.58-.52,5.16-.76,7.74-.29,3.08-.57,6.17-.82,9.26-.22,2.58-.43,5.16-.63,7.74-.23,3.08-.45,6.17-.66,9.26-.17,2.58-.33,5.16-.49,7.74-.18,3.09-.34,6.17-.49,9.26-.13,2.58-.25,5.16-.36,7.74-.13,3.09-.25,6.17-.35,9.26-.08,2.58-.16,5.16-.22,7.74-.08,3.08-.15,6.17-.2,9.26-.04,2.58-.08,5.16-.1,7.74-.03,3.09-.05,6.17-.05,9.26-.01,2.58,0,5.16,.03,7.74,.01,3.08,.04,6.17,.08,9.26,.04,2.58,.09,5.16,.14,7.74,.05,2.21,.1,4.43,.16,6.64,.02,.87,.04,1.74,.06,2.62,.06,2.57,.11,5.15,.17,7.74,.06,3.08,.13,6.17,.23,9.26,.08,2.58,.19,5.16,.33,7.74,.17,3.09,.39,6.18,.69,9.26,.26,2.59,.57,5.17,.95,7.74,.46,3.1,1.02,6.19,1.71,9.26,.58,2.59,1.26,5.17,2.04,7.74,.01,.03,.02,.07,.03,.1,1.14,3.73,2.4,6.74,3.91,9.16,2.51,4.03,5.7,6.42,10.19,7.74,2.86,.84,6.26,1.25,10.34,1.36,20.46,.58,40.9-.23,61.29-1.36,3.4-.19,6.81-.39,10.21-.59,14.01-.84,27.82-4.82,41.78-7.02,.27-.04,.53-.08,.8-.13,13.61-2.18,26.93-5.37,40.06-9.26,7.96-2.35,15.84-4.95,23.67-7.74,3.15-1.12,6.3-2.27,9.44-3.44,7.39-2.77,10.77-2.18,11.49,3.44,.18,1.38,.2,3.07,.08,5.08-.05,.89-.1,1.77-.13,2.66-.13,3.09-.17,6.17-.11,9.26,.03,2.58,.12,5.16,.25,7.74,.15,3.09,.37,6.17,.62,9.26,.21,2.58,.44,5.16,.69,7.74,.29,3.09,.6,6.17,.91,9.26,.25,2.58,.51,5.16,.74,7.74,.28,3.08,.54,6.17,.75,9.26,.09,1.23,.16,2.47,.23,3.71,.08,1.41,.12,2.75,.13,4.03Z"/><path class="e" d="M655.19,671.45c-.14,1.35-.37,2.77-.71,4.27-.26,1.16-.52,2.31-.76,3.47-.68,3.08-1.31,6.16-1.92,9.26-.51,2.57-1,5.15-1.47,7.74-.57,3.08-1.12,6.17-1.64,9.26-.44,2.58-.87,5.16-1.28,7.74-.5,3.08-.98,6.17-1.46,9.26-.4,2.58-.79,5.16-1.18,7.74-.46,3.09-.92,6.18-1.39,9.26-.38,2.58-.77,5.16-1.16,7.74-.46,3.09-.93,6.18-1.41,9.26-.4,2.58-.8,5.16-1.22,7.74-.15,.95-.3,1.89-.46,2.84-.35,2.14-.69,4.28-1,6.42-.39,2.58-.75,5.16-1.08,7.74-.41,3.09-.78,6.18-1.12,9.26-.29,2.58-.56,5.16-.8,7.74-.3,3.09-.58,6.17-.82,9.26-.21,2.58-.41,5.16-.58,7.74-.22,3.08-.41,6.17-.58,9.26-.16,2.58-.3,5.16-.42,7.74-.15,3.08-.29,6.17-.42,9.26-.1,2.58-.2,5.16-.29,7.74-.12,3.08-.22,6.17-.31,9.26-.09,2.58-.16,5.16-.24,7.74-.08,2.94-.17,5.88-.25,8.82,0,.15-.01,.29-.01,.44-.07,2.58-.14,5.16-.19,7.74-.07,3.09-.12,6.18-.17,9.26-.04,2.58-.07,5.16-.1,7.74-.04,3.09-.07,6.17-.1,9.26l-.06,7.74c-.03,3.09-.05,6.17-.08,9.26-.02,2.58-.04,5.16-.08,7.74-.03,3.08-.06,6.17-.11,9.26-.03,2.58-.08,5.16-.13,7.74-.02,1.07-.04,2.15-.06,3.22-.04,2.02,.01,4.03,.12,6.04,.14,2.58,.38,5.16,.63,7.74,.3,3.09,.61,6.17,.81,9.26,.15,2.58,.23,5.15,.13,7.74,0,.46-.03,.92-.06,1.38-.21,3.58-.92,6.21-2.17,7.88-2.08,2.82-5.67,2.89-10.89,.1-.06-.03-.13-.07-.19-.1-5.75-3.08-11.49-6.16-17.21-9.26-4.72-2.56-9.42-5.13-14.11-7.74-5.48-3.04-10.94-6.12-16.37-9.26-4.39-2.54-8.77-5.11-13.12-7.74-5.02-3.02-10-6.1-14.94-9.26-.01,0-.01-.01-.02-.01-2.96-1.89-4.21-4.55-5.09-7.61,0-.04-.02-.08-.03-.12-.88-3.06-1.69-6.15-2.43-9.26-.61-2.57-1.17-5.15-1.68-7.74-.62-3.08-1.16-6.17-1.62-9.26-.4-2.58-.74-5.16-1.01-7.74-.35-3.09-.62-6.18-.79-9.26-.1-1.53-.17-3.07-.22-4.6-.03-1.05-.07-2.09-.11-3.14-.11-3.09-.25-6.17-.39-9.26-.13-2.58-.26-5.16-.4-7.74-.16-3.09-.34-6.17-.51-9.26-.16-2.58-.31-5.16-.46-7.74-.18-3.09-.37-6.17-.54-9.26-.15-2.58-.3-5.16-.44-7.74-.16-3.09-.32-6.17-.46-9.26-.12-2.58-.23-5.16-.32-7.74-.12-3.09-.22-6.17-.29-9.26-.06-2.58-.1-5.16-.13-7.74-.03-3.08-.03-6.16,0-9.24v-.02c.09-2.58,.17-5.16,.26-7.74,.1-3.09,.21-6.17,.31-9.26,.09-2.58,.18-5.16,.26-7.74,.11-3.09,.21-6.17,.32-9.26,.08-2.58,.17-5.16,.26-7.74,.1-3.09,.2-6.17,.3-9.26,.09-2.58,.18-5.16,.26-7.74,.1-3.09,.2-6.18,.3-9.26l.24-7.74c.09-3.09,.19-6.18,.28-9.26,.08-2.58,.15-5.16,.23-7.74,.08-3.08,.17-6.17,.25-9.26,.05-1.6,.09-3.19,.13-4.79,.02-.88,.2-1.9,.37-2.95,.5-3.35,.8-7.01-4.81-7.46-5.49-.43-8.44,2.02-9.42,7.46-.19,1.1-.31,2.32-.35,3.66-.04,1.42-.18,2.78-.4,4.08-.59,3.51-1.82,6.61-3.66,9.26-2.27,3.3-5.48,5.91-9.58,7.74-3.21,1.45-6.96,2.42-11.22,2.89-10.04,1.1-19.66,3.58-29.28,6.37-2.92,.85-5.85,1.73-8.78,2.6-7,2.08-14.14,3.69-21.31,5.14-7.97,1.62-15.99,3.06-23.93,4.74-8.44,1.79-16.9,3.29-25.38,4.52-25.96,3.8-52.14,5.19-78.45,5.17-21.51-.01-43.02,.03-64.54-.07-3.24-.02-7.4,.96-8.85-3.22-.23-.68-.31-1.3-.25-1.88,.22-2.52,2.8-4.16,4.59-5.83,1.21-1.13,2.41-2.27,3.6-3.43,2.62-2.53,5.2-5.11,7.73-7.74,2.91-3.02,5.75-6.11,8.52-9.26,2.24-2.53,4.42-5.12,6.54-7.74,1.64-2,3.24-4.03,4.81-6.08,.8-1.05,1.59-2.11,2.35-3.18,1.81-2.53,3.5-5.11,5.08-7.74,1.81-3.02,3.47-6.11,4.95-9.26,1.2-2.54,2.29-5.12,3.25-7.74,1.13-3.03,2.1-6.11,2.91-9.26,.66-2.54,1.21-5.12,1.65-7.74,.51-3.03,.88-6.12,1.09-9.26,.07-.97,.12-1.94,.16-2.92,.06-1.61,.1-3.22,.13-4.82,.06-3.09,.05-6.18-.01-9.26-.06-2.59-.16-5.17-.3-7.74-.16-3.09-.39-6.18-.68-9.26-.24-2.58-.53-5.17-.85-7.74-.4-3.09-.85-6.18-1.38-9.26-.43-2.58-.91-5.16-1.43-7.74-.63-3.1-1.32-6.18-2.07-9.26-.64-2.59-1.31-5.17-2.03-7.74-.73-2.57-1.49-5.13-2.3-7.69-.17-.54-.33-1.07-.47-1.57-.99-3.47-1.27-6-.66-7.74,.97-2.8,4.23-3.59,10.56-3.06,6.58,.55,13.06,1.76,19.53,3.06,7.62,1.53,15.24,3.21,23,4.15,11.02,1.33,22.04,2.54,33.08,3.59,37.51,3.56,75.1,5.22,112.76,3.03,14.39-.84,28.77-1.96,43.16-3.03,18.49-1.38,36.99-2.7,55.56-3.3,16.17-.51,32.28-3.4,48.58-2.79,7.43,.28,9.85,1.36,9.53,6.09-.09,1.41-.42,3.13-.94,5.25-.33,1.34-.63,2.67-.9,4.01-.55,2.58-1,5.16-1.36,7.74-.43,3.1-.73,6.19-.89,9.26-.15,2.59-.19,5.17-.14,7.74,.06,3.1,.26,6.18,.61,9.26,.28,2.59,.67,5.17,1.16,7.74,.59,3.1,1.32,6.19,2.2,9.26,.75,2.59,1.6,5.17,2.55,7.74,1.12,3.02,2.39,6.03,3.81,9.02l.12,.24c1.36,2.82,3.15,5.37,5.18,7.74,1.31,1.55,2.73,3.03,4.21,4.47,1.64,1.59,3.11,3.17,4.38,4.79,1.87,2.41,3.3,4.92,4.15,7.74,.82,2.73,1.1,5.75,.73,9.26Z"/><path class="e" d="M1040.88,1257.19c-.68,3.34-3.45,5.44-9,6.81-3.08,.76-6.15,1.59-9.21,2.45-8.76,2.45-17.43,5.21-26.16,7.74-9.78,2.83-19.64,5.38-29.77,6.93-4.33,.66-8.64,1.47-12.94,2.33-14.13,2.84-28.14,6.34-42.53,7.74-2.36,.23-4.73,.4-7.12,.51-9.66,.43-19.28,1.83-28.94,2.28-25.65,1.19-51.3,2.53-76.98,1.46-30.32,1.08-60.63,.59-90.52-4.25-3.76-.6-7.51-1.27-11.25-2.02-8.34-1.67-16.68-3.55-24.95-5.72-9.95-2.61-19.8-5.65-29.48-9.26-6.61-2.47-13.17-5.05-19.67-7.74-7.11-2.94-14.15-6.03-21.14-9.26-.61-.28-1.23-.56-1.84-.85-4.39-2.05-8.39-4.26-11.83-6.89-3.41-2.61-6.28-5.61-8.46-9.26-1.38-2.3-2.49-4.86-3.28-7.74-.67-2.41-1.11-5.03-1.32-7.92-.03-.45-.06-.89-.1-1.34-.19-2.58-.39-5.16-.61-7.74-.25-3.09-.52-6.17-.8-9.26-.24-2.58-.48-5.16-.74-7.74-.3-3.09-.61-6.17-.94-9.26-.27-2.58-.55-5.16-.82-7.74-.34-3.09-.69-6.17-1.04-9.26-.29-2.58-.58-5.16-.88-7.74-.35-3.09-.71-6.17-1.07-9.26-.3-2.58-.6-5.16-.89-7.74-.36-3.09-.72-6.18-1.06-9.26-.3-2.58-.59-5.16-.87-7.74-.19-1.69-.38-3.37-.56-5.06-.17-1.58-.25-2.98-.21-4.2,.19-6.91,3.84-8.01,12.35-4.4,3.52,1.49,7.04,2.96,10.58,4.4,7.97,3.25,15.98,6.35,24.04,9.26,7.6,2.75,15.25,5.34,22.95,7.74,11.3,3.53,22.7,6.65,34.23,9.26,14.62,3.32,29.43,5.84,44.49,7.38,1.21,.12,2.42,.24,3.63,.36,36.05,3.39,72.36,2.65,108.62,.83,5.61-.28,11.22-.54,16.82-.83,14.55-.77,29.05-1.82,43.36-4.43,6.07-1.1,12.15-2.19,18.23-3.31,14.56-2.69,29.09-5.56,43.42-9.26,8.63-2.23,17.19-4.76,25.64-7.74,3.13-1.1,6.24-2.26,9.33-3.49,5.23-2.08,8.23-.02,10.27,3.49,.33,.57,.64,1.17,.92,1.8,.89,1.97,1.75,3.95,2.58,5.94,1.31,3.07,2.56,6.16,3.82,9.26,1.04,2.58,2.08,5.17,3.14,7.74,.63,1.54,1.28,3.09,1.93,4.62,.66,1.54,1.31,3.09,1.95,4.64,1.06,2.57,2.1,5.15,3.12,7.74,1.22,3.08,2.42,6.17,3.61,9.26,1,2.58,1.99,5.16,3,7.74,1.2,3.09,2.41,6.18,3.65,9.26,1.05,2.59,2.11,5.17,3.21,7.74,1.32,3.11,2.68,6.2,4.11,9.26,.04,.08,.08,.17,.12,.25,1.15,2.47,2.24,4.97,3.27,7.49,1.27,3.06,2.46,6.15,3.6,9.26,.95,2.57,1.88,5.15,2.79,7.74,.98,2.79,1.95,5.59,2.92,8.37,.11,.3,.21,.6,.3,.89,1.02,3.14,1.4,5.68,.98,7.74Z"/><path class="e" d="M1028.55,212.45c-.02,.63-.03,1.27-.05,1.9,.01,1.96,0,3.9-.06,5.84-.06,3.11-.19,6.19-.4,9.26-.17,2.59-.39,5.18-.66,7.74-.32,3.11-.7,6.19-1.15,9.26-.37,2.59-.79,5.17-1.25,7.74-.56,3.1-1.17,6.19-1.84,9.26-.56,2.59-1.16,5.17-1.8,7.74-.76,3.1-1.58,6.19-2.44,9.26-.73,2.59-1.48,5.17-2.27,7.74-.95,3.1-1.93,6.18-2.96,9.26-.33,.99-.66,1.98-1,2.97-.62,1.83-1.32,3.71-2.66,4.77-.75,.6-1.7,.93-2.95,.85-1.05-.07-1.89-.37-2.55-.85-1.82-1.27-2.34-3.79-2.52-6.1-.04-.55-.09-1.1-.15-1.64-.31-3.2-.85-6.29-1.6-9.26-.66-2.67-1.49-5.25-2.48-7.74-1.26-3.22-2.77-6.3-4.51-9.26-1.56-2.67-3.31-5.25-5.23-7.74-2.47-3.22-5.22-6.3-8.22-9.26-.68-.68-1.37-1.35-2.08-2.01-2-1.88-3.95-3.79-5.9-5.73-3.07-3.07-6.1-6.19-9.16-9.26-1.85-1.86-3.72-3.7-5.61-5.51-.79-.76-1.46-1.5-2-2.23-2.3-3.1-2.33-6.04,.14-9.26,.46-.6,1.01-1.21,1.65-1.84,1.91-1.87,3.7-3.88,5.47-5.9,2.55-2.91,5.07-5.86,7.89-8.49,.27-.25,.54-.51,.8-.77,2.42-2.38,4.43-4.98,6.05-7.74,1.73-2.94,3-6.05,3.82-9.26,.67-2.54,1.05-5.13,1.15-7.74,.13-3.09-.11-6.2-.73-9.26-.52-2.63-1.31-5.22-2.37-7.74-1.35-3.23-3.14-6.35-5.34-9.26-2.11-2.79-4.6-5.4-7.47-7.74-1.52-1.24-3.14-2.4-4.86-3.48-5.21-3.26-10.5-5.06-15.84-5.78-3.89-.53-7.81-.48-11.75,0-3.89,.47-7.8,1.36-11.73,2.52-7.52,2.22-15.1,4.16-22.53,6.74-4.18,1.45-8.31,3.1-12.35,5.13-8.38,4.2-17.3,1.89-23.98-5.13-1.8-1.9-3.45-4.14-4.87-6.69-.48-.87-.98-1.72-1.49-2.57-1.59-2.68-3.29-5.26-5.09-7.74-2.34-3.25-4.86-6.33-7.56-9.26-2.49-2.71-5.13-5.28-7.92-7.74-3.29-2.91-6.8-5.64-10.51-8.22-.53-.36-1.05-.71-1.57-1.04-11.16-7.15-21.76-7.17-33.52-.59-.35,.2-.7,.39-1.04,.59-5.26,2.97-10.44,6.06-15.54,9.26-4.01,2.51-7.98,5.09-11.9,7.74-2.03,1.36-4.05,2.74-6.06,4.14-6.83,4.76-13.07,4.31-19.71,.27-2.36-1.43-4.7-2.92-7.04-4.41-4.33-2.74-8.67-5.46-13.21-7.74-.45-.23-.9-.45-1.36-.67-8.93-4.28-17.31-3.97-24.8,.67-2.12,1.3-4.17,2.96-6.14,4.95-.91,.93-1.82,1.86-2.73,2.79-3.01,3.07-6.01,6.16-8.99,9.26-2.49,2.58-4.97,5.16-7.44,7.74-2.97,3.09-5.93,6.17-8.89,9.26-2.49,2.58-4.99,5.17-7.5,7.74-3.02,3.11-6.05,6.19-9.1,9.26-.08,.08-.15,.15-.23,.23-2.8,2.82-5.83,5.37-9.09,7.51-5.45,3.59-11.54,6.04-18.32,6.7-10.57,1.03-19.17-1.57-25.89-6.7-2.83-2.16-5.32-4.77-7.5-7.74-2.03-2.79-3.78-5.89-5.25-9.26-.63-1.45-1.22-2.95-1.75-4.5-.37-1.07-.72-2.15-1.05-3.24-.94-3.05-1.74-6.14-2.4-9.26-.54-2.56-1-5.14-1.35-7.74-.44-3.07-.75-6.16-.93-9.26-.17-2.57-.25-5.15-.25-7.74,0-3.08,.11-6.17,.31-9.26,.09-1.32,.2-2.64,.32-3.96,.12-1.3,.35-2.56,.66-3.78,.85-3.39,2.39-6.45,4.41-9.26,1.36-1.89,2.93-3.66,4.65-5.34,1.27-1.23,2.45-2.02,3.55-2.4,1.04-.35,2.01-.34,2.93,0,1.51,.55,2.87,1.98,4.15,4.18,.72,1.24,1.46,2.43,2.23,3.56,2.42,3.63,5.04,6.71,7.87,9.26,4.08,3.69,8.6,6.27,13.56,7.74,6.74,2,14.31,1.99,22.78,0,.63-.14,1.26-.3,1.89-.47,4.92-1.3,8.72-4.1,12.22-7.27,2.87-2.6,5.52-5.43,8.44-7.9,.53-.45,1.07-.91,1.6-1.36,2.97-2.54,5.9-5.13,8.8-7.74,3.4-3.06,6.77-6.15,10.12-9.26,2.78-2.57,5.56-5.16,8.34-7.74,2.97-2.75,5.95-5.49,8.96-8.21,.4-.36,.83-.71,1.27-1.05,9.3-7.1,27.64-8.96,37.94-3.83,2.4,1.18,4.69,2.58,7.06,3.83,2.47,1.3,5.02,2.45,7.85,3.05,7.15,1.52,12.77,.07,17.47-3.05,3.02-2,5.67-4.7,8.1-7.74,1.04-1.29,2.04-2.65,3.01-4.05,1.22-1.74,2.43-3.48,3.66-5.21,1.86-2.62,3.74-5.21,5.69-7.74,2.45-3.2,4.99-6.3,7.72-9.26,2.51-2.72,5.17-5.32,8.04-7.74,1.18-1.01,2.41-1.98,3.67-2.92,9.41-7.02,19.74-7.43,29.63-.82,1.78,1.19,3.51,2.45,5.22,3.74,3.33,2.5,6.54,5.15,9.79,7.74,2.2,1.75,4.41,3.48,6.69,5.13,2.09,1.52,4.23,2.89,6.41,4.13,5.71,3.28,11.7,5.72,17.81,7.74,9.08,3,18.43,5.07,27.57,7.58,1.83,.5,3.6,1.06,5.32,1.68,5.61,2,10.67,4.59,15.25,7.74,3.94,2.69,7.52,5.79,10.78,9.26,2.27,2.4,4.38,4.99,6.36,7.74,.6,.83,1.18,1.67,1.75,2.53,1.53,2.3,3.09,4.54,4.68,6.73,1.93,2.65,3.9,5.22,5.95,7.74,2.57,3.17,5.26,6.26,8.07,9.26,2.45,2.64,5.01,5.21,7.68,7.74,1.51,1.43,3.06,2.85,4.65,4.26,1.85,1.64,3.67,3.31,5.43,5,2.64,2.53,5.18,5.11,7.61,7.74,2.8,3.01,5.46,6.1,7.98,9.26,2.02,2.54,3.94,5.11,5.78,7.74,2.11,3.02,4.09,6.11,5.95,9.26,1.49,2.54,2.9,5.12,4.22,7.74,1.52,3.03,2.93,6.12,4.21,9.26,1.04,2.54,2,5.12,2.87,7.74,1.02,3.04,1.92,6.12,2.71,9.26,.63,2.54,1.2,5.12,1.67,7.74,.57,3.04,1.03,6.13,1.37,9.26,.28,2.55,.49,5.13,.62,7.74,.16,3.05,.21,6.13,.17,9.26Z"/><path class="e" d="M250.51,569.45c-.31,2.66-.91,5.23-1.7,7.74-.99,3.15-2.26,6.21-3.58,9.26-1.12,2.58-2.27,5.14-3.32,7.74-.53,1.32-1.04,2.64-1.5,3.98-.63,1.84-1.43,3.59-2.32,5.28-1.39,2.65-3.01,5.18-4.57,7.74-1.66,2.72-3.26,5.48-4.46,8.44-.11,.27-.23,.55-.34,.82-1.1,2.74-1.93,5.53,3.5,4.94,2.72-.3,4.28,.94,5.29,2.8,.47,.84,.82,1.81,1.12,2.82,.63,2.15,.88,4.3,.82,6.44-.07,2.54-.56,5.05-1.36,7.52-.02,.07-.05,.15-.07,.22-1,3.1-2.02,6.19-3.09,9.26-.9,2.6-1.84,5.18-2.84,7.74-1.18,3.12-2.45,6.21-3.8,9.26-1.15,2.61-2.37,5.2-3.67,7.74-1.59,3.15-3.31,6.24-5.16,9.26-1.16,1.89-2.37,3.76-3.65,5.59-.51,.73-1.02,1.44-1.54,2.15-2.41,3.3-4.98,6.39-7.72,9.26-2.64,2.79-5.43,5.38-8.37,7.74-4.54,3.65-9.42,6.76-14.63,9.26-7.77,3.74-16.27,6.14-25.48,6.99-3.15,.29-6.31,.55-9.47,.75-15.12,1-30.33,1.04-45.51,0-4.44-.3-8.89-.7-13.32-1.19-1.55-.17-3.25-.25-4.59-.94-2.78-1.42-5.99-3.1-7.46-5.61-.64-1.1-.95-2.35-.75-3.81,.69-4.96,6.2-3.75,9.93-3.82,10.22-.19,20.46-.06,30.69-.07,9.18-.01,18.37,.28,27.53-.07,4.44-.17,8.72-.65,12.82-1.49,7.08-1.44,13.62-3.94,19.52-7.74,3.9-2.5,7.51-5.57,10.81-9.26,1.58-1.78,3.1-3.71,4.54-5.79,.45-.65,.87-1.3,1.25-1.95,1.82-3.08,2.92-6.2,3.3-9.26,.34-2.64,.14-5.24-.59-7.74-.98-3.32-2.9-6.46-5.77-9.26-.39-.4-.8-.77-1.22-1.14-3.03-2.65-4.82-4.65-5.26-6.6-.56-2.4,.9-4.7,4.53-7.96,.48-.43,.94-.86,1.39-1.3,2.54-2.46,4.64-5.05,6.32-7.74,1.87-2.99,3.22-6.1,4.05-9.26,.67-2.56,1-5.15,1-7.74,0-3.09-.48-6.2-1.43-9.26-.81-2.62-1.97-5.21-3.48-7.74-1.89-3.21-4.35-6.32-7.36-9.26-1.28-1.26-2.66-2.48-4.14-3.67-2.07-1.66-3.68-2.96-4.83-4.07-3.52-3.4-2.84-4.99,1.72-9.26,.75-.71,1.6-1.48,2.56-2.35,1.66-1.5,3.16-3.33,4.49-5.39,1.77-2.74,3.23-5.9,4.34-9.26,.83-2.5,1.47-5.1,1.9-7.74,.51-3.09,.74-6.23,.67-9.26-.07-2.69-.38-5.3-.94-7.74-.45-1.98-1.07-3.85-1.87-5.55-.59-1.26-1.21-2.5-1.86-3.71-1.43-2.71-3-5.29-4.71-7.74-2.31-3.33-4.87-6.42-7.68-9.26-2.75-2.82-5.76-5.39-9.01-7.74-3.64-2.64-7.59-4.99-11.84-7.05-1.51-.73-3.02-1.47-4.52-2.21-5.48-2.67-10.95-5.32-16.53-7.74-4.83-2.11-9.76-4.05-14.86-5.69-2.9-.94-5.55-2.14-7.99-3.57-3.65-2.12-6.82-4.75-9.62-7.74-2.64-2.8-4.96-5.92-7.05-9.26-1.56-2.48-2.99-5.07-4.34-7.74-1.06-2.08-2.06-4.22-3.03-6.37-.43-.96-.86-1.92-1.27-2.89-1.11-2.56-2.16-5.14-3.13-7.74-1.15-3.06-2.2-6.15-3.12-9.26-.77-2.56-1.45-5.14-2.04-7.74-.68-3.06-1.24-6.14-1.64-9.26-.33-2.56-.56-5.14-.67-7.74-.03-.75-.06-1.51-.07-2.27-.04-2.35-.03-4.68,.02-6.99,.07-2.61,.21-5.19,.42-7.74,.27-3.13,.65-6.22,1.18-9.26,.45-2.63,1-5.21,1.67-7.74,.84-3.18,1.86-6.27,3.08-9.26,1.09-2.66,2.33-5.24,3.75-7.74,1.85-3.24,4-6.34,6.48-9.26,2.33-2.74,4.94-5.32,7.89-7.74,2.25-1.84,4.69-3.59,7.33-5.22,2.6-1.61,5.32-2.95,8.12-4.04,11.98-4.64,25.53-4.65,38.45-1.19,1.18,.32,2.28,.72,3.3,1.19,4.3,1.98,7.24,5.25,9.09,9.26,1.08,2.36,1.78,4.98,2.15,7.74,.16,1.21,.26,2.46,.3,3.72,.05,1.85,.05,3.7,0,5.54-.08,2.59-.28,5.17-.58,7.74-.35,3.11-.85,6.19-1.48,9.26-.54,2.6-1.17,5.18-1.88,7.74-.35,1.26-.72,2.51-1.11,3.76-.57,1.83-1.11,3.66-1.62,5.5-.71,2.57-1.35,5.15-1.92,7.74-.68,3.07-1.26,6.16-1.72,9.26-.38,2.57-.69,5.15-.9,7.74-.25,3.04-.39,6.09-.39,9.16v.1c0,2.68,.2,5.26,.59,7.74,.49,3.24,1.29,6.32,2.36,9.26,.97,2.69,2.17,5.26,3.58,7.74,1.83,3.25,4,6.32,6.44,9.26,2.24,2.69,4.71,5.26,7.36,7.74,1.5,1.41,3.05,2.79,4.66,4.14,2.03,1.71,4.06,3.41,6.1,5.12,3.05,2.56,6.11,5.12,9.12,7.74,3.48,3.01,6.9,6.08,10.2,9.26,2.6,2.5,5.13,5.07,7.55,7.74,2.69,2.95,5.25,6.03,7.65,9.26,1.72,2.31,3.35,4.7,4.89,7.18,.11,.19,.23,.37,.34,.56,1.88,3.05,3.67,6.13,5.36,9.26,1.38,2.55,2.69,5.13,3.92,7.74,1.42,3.04,2.74,6.12,3.93,9.26,.97,2.54,1.85,5.12,2.62,7.74,.92,3.03,1.7,6.12,2.33,9.26,.52,2.54,.94,5.12,1.26,7.74,.09,.75,.18,1.5,.25,2.25,.24,2.42,.19,4.75-.08,7.01Z"/><path class="e" d="M1165.07,1147.45c-.29,2.62-.81,5.2-1.54,7.74-.89,3.15-2.1,6.24-3.59,9.26-1.29,2.63-2.78,5.2-4.47,7.74-1.48,2.24-3.1,4.44-4.85,6.61-.79,.98-1.62,1.86-2.5,2.65-4.6,4.17-10.4,5.87-17.03,5.56-5.49-.26-11.01-.05-16.52-.06-19.4,.66-38.68-2.47-58.1-1.68-5.72,.23-10.58-1.28-14.86-3.82-4-2.37-7.5-5.64-10.75-9.26-.9-.99-1.77-2.01-2.63-3.04-1.27-1.52-2.44-3.09-3.52-4.7-1.98-2.96-3.67-6.06-5.16-9.26-1.18-2.52-2.23-5.11-3.19-7.74-1.11-2.99-2.1-6.04-3.05-9.11-.02-.05-.03-.1-.05-.15-.79-2.57-1.52-5.15-2.19-7.74-.79-3.07-1.5-6.16-2.1-9.26-.5-2.57-.94-5.15-1.29-7.74-.43-3.07-.76-6.16-.97-9.26-.18-2.57-.28-5.15-.3-7.74-.02-1.74,0-3.48,.06-5.23,.05-1.35,.12-2.7,.22-4.03,.19-2.62,.48-5.2,.89-7.74,.49-3.15,1.15-6.23,1.99-9.26,.73-2.63,1.59-5.21,2.6-7.74,1.26-3.17,2.75-6.25,4.49-9.26,1.53-2.65,3.25-5.23,5.18-7.74,.38-.5,.77-1,1.17-1.49,6.53-8.07,10.32-8.27,17.88-1.01,.86,.83,1.71,1.66,2.55,2.5,2.55,2.55,5.04,5.16,7.57,7.74,3.15,3.2,6.35,6.36,9.79,9.26,1.51,1.27,3.06,2.5,4.67,3.67,1.97,1.43,3.97,2.79,6,4.07,6.01,3.84,12.28,7.01,18.89,9.26,6.26,2.13,12.83,3.44,19.8,3.69,5.97,.21,9.36,1.45,10.42,4.05,.85,2.11,.18,5.14-1.89,9.26-.18,.35-.36,.7-.56,1.07-1.3,2.43-2.96,4.55-4.65,6.67-2.2,2.74-4.44,5.47-5.97,8.81-.07,.15-.14,.3-.2,.45-1.14,2.57-1.98,5.16-2.52,7.74-.67,3.13-.9,6.24-.72,9.26,.15,2.66,.63,5.26,1.41,7.74,1.03,3.32,2.6,6.45,4.67,9.26,2.18,2.96,4.92,5.58,8.16,7.74,2.64,1.76,5.62,3.21,8.92,4.29,4.88,1.59,8.58-.19,11.91-3.77,.16-.17,.31-.35,.45-.52,2.17-2.65,2.03-5.18,1.08-7.74-.4-1.08-.94-2.16-1.51-3.26-2.19-4.19-5.14-6.37-10.16-5.19-4.03,.94-8.13,1.3-11.23-.81-1.24-.84-2.32-2.07-3.18-3.81-.66-1.35-1.05-2.65-1.22-3.93-.42-3.22,.59-6.25,2.41-9.26,.55-.9,1.17-1.81,1.85-2.71,1.33-1.79,2.76-3.46,4.27-5.03,3.29-3.44,6.93-6.42,10.7-9.26,.32-.25,.65-.49,.97-.73,6.6-4.91,14.11-4.27,19.12,.73,1.59,1.58,2.93,3.6,3.91,6.01,.44,1.08,.87,2.16,1.29,3.25,1.01,2.57,1.97,5.15,2.92,7.74,.44,1.23,.89,2.47,1.34,3.7,.68,1.88,1.25,3.73,1.71,5.56,.66,2.63,1.09,5.21,1.32,7.74,.28,3.16,.23,6.24-.11,9.26Z"/><path class="e" d="M180.07,552.45c-.47,2.6-1.19,5.19-2.09,7.74-.28,.81-.59,1.62-.91,2.42-1.19,2.95-3.62,5.28-6.62,6.84-5.19,2.72-12.1,3.16-17.36,.62-.44-.21-.87-.42-1.31-.62-7.95-3.77-16.03-6.85-24.12-9.26-16.14-4.81-32.34-6.92-47.68-6.25-18.37,.02-33.47,.56-47.87,6.25-.81,.32-1.61,.66-2.42,1.01-3.67,1.61-7.93,1.06-12.01-1.01-3.31-1.69-6.51-4.38-9.16-7.74-1.11-1.41-2.14-2.94-3.03-4.56-.86-1.55-1.61-3.12-2.25-4.7-1.04-2.54-1.82-5.13-2.34-7.74-.63-3.05-.92-6.15-.9-9.26,.01-2.57,.22-5.15,.61-7.74,.2-1.37,.46-2.75,.77-4.13,.39-1.76,1.01-3.47,1.83-5.13,1.35-2.76,3.27-5.36,5.59-7.74,3.66-3.73,8.34-6.91,13.5-9.26,4.9-2.25,10.24-3.76,15.55-4.33,17.81-1.9,35.57,1.43,53.2-.38,12.48-1.29,23.96,.9,35.28,4.71,3.21,1.08,6.41,2.29,9.61,3.59,4.07,1.65,7.93,3.54,11.59,5.67,3.97,2.3,7.7,4.88,11.18,7.74,3.43,2.82,6.62,5.91,9.56,9.26,2.15,2.44,4.16,5.02,6.05,7.74,.55,.79,1.08,1.59,1.61,2.41,1.43,2.22,2.51,4.51,3.28,6.85,.84,2.53,1.31,5.12,1.47,7.74,.19,3.07-.04,6.17-.61,9.26Z"/><path class="e" d="M188.8,620.45c-.4,2.58-1.13,5.16-2,7.74-.13,.38-.26,.76-.39,1.14-1.17,3.38-3.07,6.08-5.51,8.12-3.55,2.97-8.25,4.54-13.49,4.78-8.09,.36-16.05,0-24.09-2.19-3.55-.97-7.1-1.83-10.66-2.59-28.84-6.2-58.16-6.05-87.52-3.35-8.27,.76-15.98-1.49-21.95-5.91-2.87-2.11-5.33-4.72-7.26-7.74-1.8-2.77-3.13-5.88-3.92-9.26-.53-2.22-.82-4.55-.84-6.97,0-.26,0-.51,0-.77-.02-2.38,0-4.93,0-9.16,0-.03,0-.07,0-.1-.33-2.49-.47-5.12-.19-7.74,.34-3.18,1.3-6.35,3.27-9.26,1.43-2.1,3.39-4.07,6.04-5.8,1.25-.82,2.55-1.45,3.87-1.94,4.63-1.73,9.61-1.73,14.36-1.95,26.03-1.21,52.28-3.23,77.87,1.95,4.46,.9,8.9,2.03,13.32,3.41,4.35,1.36,8.68,2.78,12.96,4.33,7.13,2.57,14.09,5.53,20.66,9.26,3.98,2.26,7.81,4.81,11.45,7.74,3,2.41,5.86,5.07,8.56,8.04,.37,.41,.72,.81,1.04,1.22,2.08,2.56,3.36,5.14,4.06,7.74,.83,3.07,.83,6.16,.37,9.26Z"/><path class="e" d="M176.16,679.19c-.74,2.9-2.64,5.98-5.76,9.26-.22,.23-.45,.47-.69,.71-2.6,2.61-5.34,4.97-8.24,7.03-6.99,4.95-14.92,8.16-24.13,8.97-1.16,.1-2.31,.2-3.47,.29-11.38,.94-22.74,1.58-34.16,1.19-10.49-.19-20.94-.06-31.45-1.19-.22-.02-.45-.04-.67-.07-9.29-1.04-17.21-4.52-24.67-9.19-1.55-.97-3.07-1.99-4.59-3.05-1.92-1.35-3.59-2.92-5.01-4.69-2.16-2.68-3.73-5.8-4.71-9.26-.68-2.43-1.08-5.02-1.18-7.74-.11-2.95,.14-6.05,.75-9.26,.19-1.02,.42-2.05,.68-3.09,.37-1.45,1.18-3.04,2.32-4.65,2.38-3.36,6.18-6.81,10.38-9.26,3.78-2.21,7.86-3.62,11.5-3.42,16.96,.92,34.22-2.44,50.84,2.01,1.85,.5,3.71,.96,5.57,1.41,12.64,3.03,25.53,5.16,37.87,9.26,6.03,1.99,11.94,4.46,17.61,7.74,.11,.06,.21,.12,.32,.18,4.92,2.87,8.28,5.87,9.97,9.08,1.3,2.45,1.62,5.02,.92,7.74Z"/><path class="e" d="M277.53,628.19c-.03,3.16-.18,6.24-.42,9.26-.21,2.63-.49,5.21-.85,7.74-.44,3.16-1,6.25-1.67,9.26-.57,2.64-1.23,5.21-1.98,7.74-.92,3.17-1.97,6.25-3.13,9.26-1.01,2.64-2.12,5.22-3.31,7.74-1.49,3.17-3.11,6.25-4.86,9.26-1.53,2.64-3.15,5.22-4.86,7.74-2.15,3.17-4.43,6.25-6.84,9.26-2.11,2.63-4.31,5.21-6.61,7.74-2.86,3.15-5.86,6.24-8.98,9.26-2.72,2.62-5.52,5.2-8.41,7.74-.05,.05-.11,.09-.16,.14-4.43,3.88-8.92,6.94-13.62,9.12-7.58,3.53-15.69,4.78-24.89,3.51-2.88-.39-6.29-.22-7.26-3.51h0c-1.22-4.18,2.98-4.13,5.24-5.47,2.07-1.23,4.11-2.49,6.1-3.79,3.78-2.45,7.41-5.02,10.89-7.74,3.73-2.91,7.28-5.99,10.63-9.26,2.54-2.47,4.95-5.04,7.24-7.74,2.51-2.94,4.87-6.02,7.06-9.26,1.71-2.49,3.3-5.06,4.8-7.74,1.67-2.96,3.21-6.05,4.63-9.26,.27-.59,.53-1.2,.78-1.8,.83-1.98,1.63-3.96,2.39-5.94,1.19-3.08,2.29-6.16,3.29-9.26,.83-2.57,1.59-5.15,2.28-7.74,.82-3.07,1.53-6.15,2.12-9.26,.5-2.56,.91-5.14,1.24-7.74,.39-3.06,.65-6.15,.78-9.26,.12-2.56,.14-5.14,.06-7.74-.02-1.07-.07-2.14-.13-3.21-.12-2.09-.03-4.1,.29-6.05,.45-2.69,1.35-5.26,2.81-7.74,.34-.6,.72-1.19,1.14-1.78,1.67-2.38,3.01-4.88,4.09-7.48,1.04-2.5,1.84-5.09,2.46-7.74,.71-3.02,1.19-6.12,1.52-9.26,.03-.23,.06-.45,.08-.68,.27-2.63-.06-6.03,2.68-7.06,.41-.16,.88-.26,1.44-.3,.85-.06,1.54,.06,2.11,.3,2.15,.94,2.65,3.74,3.4,6.18,.16,.52,.31,1.04,.46,1.56,.91,3.08,1.69,6.18,2.37,9.26,.57,2.6,1.06,5.19,1.48,7.74,.52,3.15,.93,6.24,1.24,9.26,.28,2.65,.49,5.24,.62,7.74,.19,3.24,.26,6.34,.23,9.26,0,.5,0,1,0,1.49,.06,2.12,.08,4.2,.04,6.25Z"/><path class="e" d="M592.32,192.32c-.67,1.05-1.34,2.09-2.02,3.13-1.67,2.59-3.37,5.15-5.03,7.74-1.96,3.04-3.88,6.11-5.68,9.26-1.44,2.52-2.81,5.09-4.06,7.74-.03,.06-.06,.12-.09,.18-2.27,4.87-6.5,3.52-9.79-.18-.1-.11-.19-.22-.29-.33-1.99-2.37-3.5-4.86-4.56-7.41-1.29-3.06-1.94-6.19-2.05-9.26-.07-1.77,.05-3.53,.33-5.25,0-.85-.01-1.68-.01-2.49-.02-3.28-.06-6.35,.17-9.26,.21-2.71,.65-5.27,1.54-7.74,.34-.94,.75-1.87,1.23-2.78,3.62-6.88,12.3-7.99,16.61-1.59,1.13,1.68,2.34,3.12,3.68,4.37,2,1.88,4.27,3.31,6.92,4.41,2.06,.85,3.39,1.99,4.04,3.33,.84,1.75,.51,3.85-.94,6.13Z"/><path class="e" d="M803.26,418.65c0,1.76-.75,3.5-3.01,5.54-2.69,2.44-7.53,5.33-15.79,9.26-.86,.41-1.75,.83-2.68,1.26-4.67,2.17-9.4,4.35-14.49,6.48-7.76,3.26-16.34,6.41-26.8,9.26-5.07,1.38-10.6,2.69-16.68,3.91-12.49,2.5-18.74,3.75-27.48,3.58-6.82-.13-11.02-.97-33.67-7.49-1.65-.47-3.39-.97-5.24-1.51-7.52-2.18-15.87-4.63-23.71-7.75-5.55-2.2-10.84-4.74-15.39-7.74-3.2-2.1-6.03-4.44-8.32-7.06-.46-.52-1.14-1.31-1.77-2.2-1-1.44-1.83-3.11-1.23-4.28,1.51-2.94,11.09-.79,13.84-.2,7.91,1.72,17.76,3.24,27.48,4.48,15.38,1.98,30.44,3.27,37.07,3.56,12.39,.55,26.61-1,40.29-3.56,11.25-2.1,22.14-4.88,31.32-7.74,7.61-2.36,14.06-4.78,18.58-6.9,1.08-.5,3.47-1.65,6.53-2.36,2.77-.64,6.1-.92,9.51,0,.27,.07,.53,.14,.8,.23,4.43,1.43,9.13,5.02,10.47,9.03,.24,.72,.37,1.46,.37,2.2Z"/></g><g><path class="d" d="M953.8,1283.45c-14.13,2.84-28.14,6.34-42.53,7.74h-203.56c-3.76-.6-7.51-1.27-11.25-2.02-8.34-1.67-16.68-3.55-24.95-5.72h282.29Z"/><path class="d" d="M1022.67,1266.45c-8.76,2.45-17.43,5.21-26.16,7.74h-354.48c-6.61-2.47-13.17-5.05-19.67-7.74h400.31Z"/><path class="d" d="M1040.88,1257.19h-439.66c-.61-.28-1.23-.56-1.84-.85-4.39-2.05-8.39-4.26-11.83-6.89h452.35c1.02,3.14,1.4,5.68,.98,7.74Z"/><path class="d" d="M1036.68,1240.19h-457.59c-1.38-2.3-2.49-4.86-3.28-7.74h458.08c.95,2.57,1.88,5.15,2.79,7.74Z"/><path class="d" d="M1030.29,1223.19h-455.9c-.19-2.58-.39-5.16-.61-7.74h453.12c.04,.08,.08,.17,.12,.25,1.15,2.47,2.24,4.97,3.27,7.49Z"/><path class="d" d="M1022.79,1206.19h-449.81c-.24-2.58-.48-5.16-.74-7.74h447.34c1.05,2.59,2.11,5.17,3.21,7.74Z"/><g><path class="d" d="M1015.93,1189.19h-444.63c-.27-2.58-.55-5.16-.82-7.74h442.45c1,2.58,1.99,5.16,3,7.74Z"/><path class="d" d="M1148.12,1181.45c-4.6,4.17-10.4,5.87-17.03,5.56-5.49-.26-11.01-.05-16.52-.06-19.4,.66-38.68-2.47-58.1-1.68-5.72,.23-10.58-1.28-14.86-3.82h106.51Z"/></g><g><path class="d" d="M1009.32,1172.19h-439.88c-.29-2.58-.58-5.16-.88-7.74h437.64c1.06,2.57,2.1,5.15,3.12,7.74Z"/><path class="d" d="M1159.94,1164.45c-1.29,2.63-2.78,5.2-4.47,7.74h-124.61c-.9-.99-1.77-2.01-2.63-3.04-1.27-1.52-2.44-3.09-3.52-4.7h135.23Z"/></g><g><path class="d" d="M716.17,1155.19h-148.68c-.3-2.58-.6-5.16-.89-7.74h101.45c14.62,3.32,29.43,5.84,44.49,7.38,1.21,.12,2.42,.24,3.63,.36Z"/><path class="d" d="M1002.32,1155.19h-160.71c14.55-.77,29.05-1.82,43.36-4.43,6.07-1.1,12.15-2.19,18.23-3.31h95.98c1.04,2.58,2.08,5.17,3.14,7.74Z"/><path class="d" d="M1118.31,1155.19h-98.76c-1.18-2.52-2.23-5.11-3.19-7.74h93.79c2.18,2.96,4.92,5.58,8.16,7.74Z"/><path class="d" d="M1165.07,1147.45c-.29,2.62-.81,5.2-1.54,7.74h-23.94c2.17-2.65,2.03-5.18,1.08-7.74h24.4Z"/></g><g><path class="d" d="M633.82,1138.19h-68.28c-.3-2.58-.59-5.16-.87-7.74h46.2c7.6,2.75,15.25,5.34,22.95,7.74Z"/><path class="d" d="M920.11,1130.45c-6.99,1.89-13.99,3.75-20.97,5.68-3.14,.87-6.31,1.54-9.5,2.06h-219.91c-1.68-.29-3.37-.59-5.05-.89-9.02-1.6-18.07-3.94-27-6.85h282.43Z"/><path class="d" d="M995.36,1138.19h-48.74c8.63-2.23,17.19-4.76,25.64-7.74h19.6c.33,.57,.64,1.17,.92,1.8,.89,1.97,1.75,3.95,2.58,5.94Z"/><path class="d" d="M1104.07,1130.45c.15,2.66,.63,5.26,1.41,7.74h-92.22c-.79-2.57-1.52-5.15-2.19-7.74h93Z"/><path class="d" d="M1165.18,1138.19h-47.41c-1.24-.84-2.32-2.07-3.18-3.81-.66-1.35-1.05-2.65-1.22-3.93h50.49c.66,2.63,1.09,5.21,1.32,7.74Z"/></g><g><path class="d" d="M586.83,1121.19h-22.93c.19-6.91,3.84-8.01,12.35-4.4,3.52,1.49,7.04,2.96,10.58,4.4Z"/><path class="d" d="M972.82,1113.45c-2.02,.98-4.28,1.92-6.78,2.85-4.68,1.75-9.38,3.37-14.12,4.89h-338.49c-6.05-2.63-12.15-5.11-18.2-7.74h377.59Z"/><path class="d" d="M1007.68,1113.45h99.63c-1.14,2.57-1.98,5.16-2.52,7.74h-95.82c-.5-2.57-.94-5.15-1.29-7.74Z"/><path class="d" d="M1160.81,1121.19h-45.03c.55-.9,1.17-1.81,1.85-2.71,1.33-1.79,2.76-3.46,4.27-5.03h35.99c1.01,2.57,1.97,5.15,2.92,7.74Z"/></g><g><path class="d" d="M987.55,1096.45c-.6,2.97-1.6,5.51-3.07,7.74h-408.22c-3.88-2.3-7.26-4.84-10.14-7.74h421.43Z"/><path class="d" d="M1118.69,1096.45c-.18,.35-.36,.7-.56,1.07-1.3,2.43-2.96,4.55-4.65,6.67h-106.77c-.18-2.57-.28-5.15-.3-7.74h112.28Z"/><path class="d" d="M1152.69,1104.19h-20.09c.32-.25,.65-.49,.97-.73,6.6-4.91,14.11-4.27,19.12,.73Z"/></g><g><path class="d" d="M988.33,1087.19h-428.97c-1.23-2.37-2.24-4.93-3.04-7.74h431.65c.09,1.23,.16,2.47,.23,3.71,.08,1.41,.12,2.75,.13,4.03Z"/><path class="d" d="M1120.58,1087.19h-113.89c.19-2.62,.48-5.2,.89-7.74h82.78c6.26,2.13,12.83,3.44,19.8,3.69,5.97,.21,9.36,1.45,10.42,4.05Z"/></g><g><path class="d" d="M987.22,1070.19h-433.23c-.6-2.58-1.17-5.16-1.71-7.74h434.2c.25,2.58,.51,5.16,.74,7.74Z"/><path class="d" d="M1071.47,1070.19h-61.9c.73-2.63,1.59-5.21,2.6-7.74h48.63c1.51,1.27,3.06,2.5,4.67,3.67,1.97,1.43,3.97,2.79,6,4.07Z"/><path class="d" d="M1165.29,1062.45c-4.56,4.13-10.29,6.23-18.42,5.19-9.03-1.16-18.38-.8-27.51-.11-11.12,.84-20.98-1.06-29.99-5.08h75.92Z"/></g><g><path class="d" d="M985.57,1053.19h-435.1c-.47-2.57-.91-5.16-1.34-7.74h435.75c.21,2.58,.44,5.16,.69,7.74Z"/><path class="d" d="M1043.44,1045.45c2.55,2.55,5.04,5.16,7.57,7.74h-34.35c1.53-2.65,3.25-5.23,5.18-7.74h21.6Z"/><path class="d" d="M1176.85,1045.45c-1.18,2.04-2.34,4.09-3.49,6.15-.3,.54-.6,1.07-.91,1.59h-98.32c-3.04-2.35-5.98-4.94-8.86-7.74h111.58Z"/></g><g><path class="d" d="M775.09,1036.19h-227.37c-.37-2.58-.72-5.16-1.05-7.74h218.23c2.51,4.03,5.7,6.42,10.19,7.74Z"/><path class="d" d="M984.26,1036.19h-137.54c3.4-.19,6.81-.39,10.21-.59,14.01-.84,27.82-4.82,41.78-7.02,.27-.04,.53-.08,.8-.13h84.5c.03,2.58,.12,5.16,.25,7.74Z"/><path class="d" d="M1187,1028.45c-1.58,2.58-3.14,5.15-4.69,7.74h-125.95c-2.28-2.53-4.5-5.11-6.65-7.74h137.29Z"/></g><g><path class="d" d="M760.96,1019.19h-215.4c-.3-2.58-.57-5.16-.84-7.74h214.2c.58,2.59,1.26,5.17,2.04,7.74Z"/><path class="d" d="M921.29,1011.45c-15.85,2.96-31.78,5.52-47.76,7.74h-100.1c-.83-2.12-1.46-4.68-2.02-7.74h149.88Z"/><path class="d" d="M984.25,1016.53c-.05,.89-.1,1.77-.13,2.66h-44.55c7.96-2.35,15.84-4.95,23.67-7.74h20.93c.18,1.38,.2,3.07,.08,5.08Z"/><path class="d" d="M1197.34,1011.45c-1.55,2.59-3.12,5.17-4.69,7.74h-150.13c-1.8-2.44-3.55-4.91-5.25-7.41-.07-.11-.15-.22-.22-.33h160.29Z"/></g><g><path class="d" d="M598.46,1000.66c1.06,.52,2.12,1.03,3.2,1.53h-57.86c-.13-1.4-.26-2.8-.39-4.2-.11-1.18-.22-2.36-.34-3.54h43.11c4.06,2.13,8.17,4.18,12.28,6.21Z"/><path class="d" d="M618.51,994.45h11.08c-2.08,2.82-5.67,2.89-10.89,.1-.06-.03-.13-.07-.19-.1Z"/><path class="d" d="M757.21,1002.19h-113.14c1.04-2.32,1.68-4.94,1.82-7.74h110.37c.26,2.59,.57,5.17,.95,7.74Z"/><path class="d" d="M977.74,994.45c-6.16,2.99-12.5,5.55-18.94,7.74h-188.48c-.08-1.27-.12-2.54-.13-3.8,0-1.31,0-2.63-.02-3.94h207.57Z"/><path class="d" d="M1207.62,994.45c-1.57,2.58-3.13,5.16-4.69,7.74h-169.04c-.21-2.57,.07-5.16,.65-7.74h173.08Z"/></g><g><path class="d" d="M558.68,977.45c3.62,2.77,7.36,5.33,11.2,7.74h-27.67c-.12-1.47-.23-2.94-.31-4.41-.06-1.08-.15-2.23-.1-3.33h16.88Z"/><path class="d" d="M631.69,977.45c.15,2.58,.23,5.15,.13,7.74h-30.52c-4.72-2.56-9.42-5.13-14.11-7.74h44.5Z"/><path class="d" d="M755.57,985.19h-110.2c-.21-2.58-.43-5.16-.64-7.74h110.51c.08,2.58,.19,5.16,.33,7.74Z"/><path class="d" d="M989.31,977.45c-.1,1.54-.19,3.08-.26,4.63-.06,1.13-.26,2.17-.59,3.11h-218.32c0-2.54-.01-5.12,0-7.74h219.17Z"/><path class="d" d="M1217.88,977.45c-1.53,2.58-3.08,5.16-4.64,7.74h-175.44c.49-1.12,1.02-2.23,1.55-3.32,.72-1.47,1.44-2.94,2.14-4.42h176.39Z"/></g><g><path class="d" d="M630.25,960.45c.14,2.58,.38,5.16,.63,7.74h-60.06c-4.39-2.54-8.77-5.11-13.12-7.74h72.55Z"/><path class="d" d="M755.01,968.19h-111.04c-.21-2.58-.42-5.16-.62-7.74h111.49c.06,2.57,.11,5.15,.17,7.74Z"/><path class="d" d="M990.98,960.45c-.33,2.58-.62,5.15-.88,7.74h-219.97v-7.74h220.85Z"/><path class="d" d="M1227.73,960.45c-1.45,2.59-2.92,5.17-4.41,7.74h-177.38c1.24-2.58,2.48-5.16,3.73-7.74h178.06Z"/></g><path class="d" d="M239.45,637.45c-.07,2.54-.56,5.05-1.36,7.52-.02,.07-.05,.15-.07,.22h-47.58c2.54-2.46,4.64-5.05,6.32-7.74h42.69Z"/><path class="d" d="M248.37,637.45h28.74c-.21,2.63-.49,5.21-.85,7.74h-29.13c.5-2.56,.91-5.14,1.24-7.74Z"/><path class="d" d="M641.72,645.19H286.45c.07-.97,.12-1.94,.16-2.92,.06-1.61,.1-3.22,.13-4.82h349.8c1.36,2.82,3.15,5.37,5.18,7.74Z"/><path class="d" d="M897.81,637.45c-3.17,2.71-6.41,5.29-9.72,7.74h-228.69c-2.12-2.52-4.18-5.1-6.13-7.74h244.54Z"/><path class="d" d="M1133.29,645.19h-222.22c3.35-2.41,6.57-5,9.64-7.74h203.24c3.13,2.57,6.24,5.15,9.34,7.74Z"/><path class="d" d="M643.38,739.45c-.38,2.58-.77,5.16-1.16,7.74h-114.69c.09-2.58,.18-5.16,.26-7.74h115.59Z"/><path class="d" d="M769.39,739.45c-.3,2.58-.57,5.16-.83,7.74h-114.5c.44-2.59,.9-5.17,1.39-7.74h113.94Z"/><path class="d" d="M1234.47,747.19h-454.15c.38-2.58,.77-5.16,1.19-7.74h446.41c2.21,2.57,4.39,5.14,6.55,7.74Z"/><path class="d" d="M537.62,943.45h92.7c-.03,2.58-.08,5.16-.13,7.74h-87.43s-.01-.01-.02-.01c-2.96-1.89-4.21-4.55-5.09-7.61,0-.04-.02-.08-.03-.12Z"/><path class="d" d="M754.62,951.19h-111.96c-.19-2.58-.36-5.16-.52-7.74h112.34c.04,2.58,.09,5.16,.14,7.74Z"/><path class="d" d="M993.48,943.45c-.43,2.58-.84,5.16-1.22,7.74h-222.12v-7.74h223.34Z"/><path class="d" d="M1236.85,943.45c-1.34,2.59-2.69,5.17-4.06,7.74h-178.61c1.27-2.59,2.57-5.17,3.88-7.74h178.79Z"/><path class="d" d="M533.51,926.45h97c-.02,2.58-.04,5.16-.08,7.74h-95.24c-.61-2.57-1.17-5.15-1.68-7.74Z"/><path class="d" d="M754.4,934.19h-112.8c-.13-2.58-.24-5.16-.33-7.74h113.1c-.01,2.58,0,5.16,.03,7.74Z"/><path class="d" d="M996.44,926.45c-.46,2.58-.93,5.16-1.38,7.74h-224.96c-.13-2.53-.23-5.11-.32-7.74h226.66Z"/><path class="d" d="M1245.44,926.45c-1.29,2.58-2.58,5.16-3.88,7.74h-178.64c1.41-2.6,2.85-5.19,4.33-7.74h178.19Z"/><path class="d" d="M640.81,756.45c-.4,2.58-.8,5.16-1.22,7.74h-112.62c.08-2.58,.17-5.16,.26-7.74h113.58Z"/><path class="d" d="M767.61,756.45c-.26,2.58-.52,5.16-.79,7.74h-115.48c.38-2.58,.77-5.16,1.18-7.74h115.09Z"/><path class="d" d="M1248.26,764.19h-470.27c.32-2.58,.66-5.16,1.02-7.74h463.06c2.1,2.57,4.16,5.15,6.19,7.74Z"/><path class="d" d="M530.88,909.45h99.77l-.06,7.74h-98.7c-.4-2.58-.74-5.16-1.01-7.74Z"/><path class="d" d="M754.52,909.45c-.04,2.58-.08,5.16-.1,7.74h-113.43c-.05-2.58-.08-5.16-.08-7.74h113.61Z"/><path class="d" d="M999.5,909.45c-.45,2.58-.91,5.16-1.38,7.74h-228.52c-.02-2.54-.03-5.13-.02-7.74h229.92Z"/><path class="d" d="M1253.97,909.45c-1.32,2.57-2.62,5.16-3.91,7.74h-177.39c1.52-2.58,3.04-5.16,4.57-7.74h176.73Z"/><path class="d" d="M638.13,773.45c-.39,2.58-.75,5.16-1.08,7.74h-110.66c.09-2.58,.18-5.16,.26-7.74h111.48Z"/><path class="d" d="M765.8,773.45c-.29,2.58-.6,5.16-.93,7.74h-115.76c.3-2.59,.62-5.17,.96-7.74h115.73Z"/><path class="d" d="M1261.25,781.19h-306.04c-1.13-.66-2.24-1.34-3.35-2.04-3.06-1.95-6.59-3.19-9.99-4.57-1.81-.73-4.17-2.33-5.38,.56-.88,2.11,1.16,3.23,2.7,4.21,.95,.6,1.89,1.22,2.83,1.84h-165.99c.27-2.58,.55-5.16,.84-7.74h478.57c1.96,2.56,3.9,5.14,5.81,7.74Z"/><path class="d" d="M147.34,654.45c6.03,1.99,11.94,4.46,17.61,7.74H28.18c.19-1.02,.42-2.05,.68-3.09,.37-1.45,1.18-3.04,2.32-4.65h116.16Z"/><path class="d" d="M234.93,654.45c-.9,2.6-1.84,5.18-2.84,7.74h-41.09c-.39-.4-.8-.77-1.22-1.14-3.03-2.65-4.82-4.65-5.26-6.6h50.41Z"/><path class="d" d="M245.01,654.45h29.58c-.57,2.64-1.23,5.21-1.98,7.74h-29.88c.83-2.57,1.59-5.15,2.28-7.74Z"/><path class="d" d="M654.46,662.19H283.71c.66-2.54,1.21-5.12,1.65-7.74h364.95c1.87,2.41,3.3,4.92,4.15,7.74Z"/><path class="d" d="M874.44,654.45c-4.44,2.75-8.98,5.32-13.61,7.74h-191.57c-.55-2.66-1.59-5.24-3.01-7.74h208.19Z"/><path class="d" d="M1153.01,662.19h-269.89c4.55-2.5,9.05-5.08,13.5-7.74h247.55c2.97,2.55,5.91,5.13,8.84,7.74Z"/><path class="d" d="M206.55,705.45c-2.64,2.79-5.43,5.38-8.37,7.74h-40.24c7.08-1.44,13.62-3.94,19.52-7.74h29.09Z"/><path class="d" d="M219.78,705.45h29.83c-2.11,2.63-4.31,5.21-6.61,7.74h-30.46c2.54-2.47,4.95-5.04,7.24-7.74Z"/><path class="d" d="M260.36,705.45h250.59c-2.27,3.3-5.48,5.91-9.58,7.74H253.82c2.24-2.53,4.42-5.12,6.54-7.74Z"/><path class="d" d="M648.69,705.45c-.44,2.58-.87,5.16-1.28,7.74h-118.8c.08-2.58,.15-5.16,.23-7.74h119.85Z"/><path class="d" d="M774.62,705.45c-.62,2.14-1.13,4.38-1.53,6.71-.06,.34-.12,.69-.17,1.03h-112.1c.5-2.57,.94-5.15,1.37-7.74h112.43Z"/><path class="d" d="M1204.55,713.19h-418.42c.05-.28,.11-.56,.16-.84,.52-2.63,1.02-4.92,1.56-6.9h409.47c2.42,2.56,4.84,5.15,7.23,7.74Z"/><path class="d" d="M873.81,552.45c-2.1,2.78-4.67,5.24-7.1,7.74h-197.95c-4.36-2.44-8.62-5.03-12.8-7.74h217.85Z"/><path class="d" d="M953.02,552.45c-.66,2.62-1.39,5.2-2.19,7.74h-70.34c1.5-2.53,2.85-5.11,4.07-7.74h68.46Z"/><path class="d" d="M1009.04,560.19h-44.05c.13-2.58,.16-5.15,.35-7.74h29.83c4.66,2.55,9.21,5.31,13.87,7.74Z"/><path class="d" d="M33.32,688.45H170.4c-.22,.23-.45,.47-.69,.71-2.6,2.61-5.34,4.97-8.24,7.03H42.92c-1.55-.97-3.07-1.99-4.59-3.05-1.92-1.35-3.59-2.92-5.01-4.69Z"/><path class="d" d="M219.46,688.45c-1.16,1.89-2.37,3.76-3.65,5.59-.51,.73-1.02,1.44-1.54,2.15h-26c1.58-1.78,3.1-3.71,4.54-5.79,.45-.65,.87-1.3,1.25-1.95h25.4Z"/><path class="d" d="M231.64,688.45h29.67c-1.53,2.64-3.15,5.22-4.86,7.74h-29.61c1.71-2.49,3.3-5.06,4.8-7.74Z"/><path class="d" d="M272.6,688.45h242.76c-.19,1.1-.31,2.32-.35,3.66-.04,1.42-.18,2.78-.4,4.08h-247.09c1.81-2.53,3.5-5.11,5.08-7.74Z"/><path class="d" d="M651.8,688.45c-.51,2.57-1,5.15-1.47,7.74h-121.24c.05-1.6,.09-3.19,.13-4.79,.02-.88,.2-1.9,.37-2.95h122.21Z"/><path class="d" d="M784.22,688.45c-2.26,2.17-4.2,4.77-5.82,7.74h-114.73c.42-2.58,.85-5.16,1.33-7.74h119.22Z"/><path class="d" d="M1188.47,696.19h-395.96c3.31-3.18,8.41-4.25,17.41-5.25,4.67-.52,9.21-1.37,13.67-2.49h357.32c1.21,1.21,2.41,2.43,3.61,3.66,1.32,1.36,2.64,2.72,3.95,4.08Z"/><path class="d" d="M174.77,594.19H11.16c-.33-2.49-.47-5.12-.19-7.74H163.32c3.98,2.26,7.81,4.81,11.45,7.74Z"/><path class="d" d="M245.23,586.45c-1.12,2.58-2.27,5.14-3.32,7.74h-52.37c-1.28-1.26-2.66-2.48-4.14-3.67-2.07-1.66-3.68-2.96-4.83-4.07h64.66Z"/><path class="d" d="M273.93,586.45c.57,2.6,1.06,5.19,1.48,7.74h-18c1.04-2.5,1.84-5.09,2.46-7.74h14.06Z"/><path class="d" d="M626.09,594.19H283.52c-.43-2.58-.91-5.16-1.43-7.74h344.14c-.15,2.59-.19,5.17-.14,7.74Z"/><path class="d" d="M694.08,594.19h-58.01c-.12-2.59-.07-5.17,.13-7.74h50.47c2.43,2.63,4.85,5.26,7.41,7.74Z"/><path class="d" d="M835.18,586.45c-5.29,2.98-10.8,5.54-16.52,7.74h-66.42c7.57-1.1,15.44-.41,22.65-3.66,1.5-.67,3.33-.86,4.77-4.08h55.52Z"/><path class="d" d="M939.8,586.45c-1.4,2.63-2.88,5.2-4.44,7.74h-86.4c3.34-2.4,6.56-4.97,9.66-7.74h81.18Z"/><path class="d" d="M1065.75,594.19h-112.12c1.38-2.54,2.68-5.11,3.88-7.74h96.47c3.93,2.57,7.86,5.14,11.77,7.74Z"/><path class="d" d="M142.66,577.19H14.24c1.43-2.1,3.39-4.07,6.04-5.8,1.25-.82,2.55-1.45,3.87-1.94H116.38c4.46,.9,8.9,2.03,13.32,3.41,4.35,1.36,8.68,2.78,12.96,4.33Z"/><path class="d" d="M170.45,569.45c-5.19,2.72-12.1,3.16-17.36,.62-.44-.21-.87-.42-1.31-.62h18.67Z"/><path class="d" d="M250.51,569.45c-.31,2.66-.91,5.23-1.7,7.74h-66.52c.75-.71,1.6-1.48,2.56-2.35,1.66-1.5,3.16-3.33,4.49-5.39h61.17Z"/><path class="d" d="M271.1,575.63c.16,.52,.31,1.04,.46,1.56h-10.17c.03-.23,.06-.45,.08-.68,.27-2.63-.06-6.03,2.68-7.06h3.55c2.15,.94,2.65,3.74,3.4,6.18Z"/><path class="d" d="M628.48,569.45c-.55,2.58-1,5.16-1.36,7.74H280.02c-.64-2.59-1.31-5.17-2.03-7.74h350.49Z"/><path class="d" d="M677.64,577.19h-40.11c.32-1.52,.68-3.04,1.09-4.55,.32-1.2,.67-2.26,1.04-3.19h27.79c3.75,2.19,7.08,4.85,10.19,7.74Z"/><path class="d" d="M857.98,569.45c-2.85,2.78-5.81,5.35-8.88,7.74h-139.96c-4.29-1.44-8.56-2.95-12.83-4.42-2.93-1.01-5.82-2.12-8.69-3.32h170.36Z"/><path class="d" d="M947.6,569.45c-1.01,2.63-2.08,5.2-3.24,7.74h-76.48c2.21-2.46,4.32-5.04,6.35-7.74h73.37Z"/><path class="d" d="M1039.7,577.19h-78.42c.9-2.53,1.69-5.11,2.37-7.74h63.02c4.41,2.44,8.77,5.01,13.03,7.74Z"/><path class="d" d="M188.8,620.45c-.4,2.58-1.13,5.16-2,7.74H23.19c-2.87-2.11-5.33-4.72-7.26-7.74H188.8Z"/><path class="d" d="M237.51,628.19h-36.7c.67-2.56,1-5.15,1-7.74h26.91c-1.1,2.74-1.93,5.53,3.5,4.94,2.72-.3,4.28,.94,5.29,2.8Z"/><path class="d" d="M277.49,621.94c.06,2.12,.08,4.2,.04,6.25h-28.38c.12-2.56,.14-5.14,.06-7.74h28.29c0,.5,0,1,0,1.49Z"/><path class="d" d="M632.61,628.19H286.73c-.06-2.59-.16-5.17-.3-7.74h343.63c.75,2.59,1.6,5.17,2.55,7.74Z"/><path class="d" d="M915.41,620.45c-2.41,2.63-4.91,5.21-7.5,7.74h-260.85c-1.51-2.51-2.91-5.09-4.16-7.74h272.51Z"/><path class="d" d="M1112.56,628.19h-182.49c2.28-2.49,4.45-5.07,6.51-7.74h166.22c1.96,1.51,3.91,3.04,5.85,4.6,1.31,1.05,2.61,2.09,3.91,3.14Z"/><path class="d" d="M175.24,671.45c1.3,2.45,1.62,5.02,.92,7.74H28.61c-.68-2.43-1.08-5.02-1.18-7.74H175.24Z"/><path class="d" d="M228.29,671.45c-1.15,2.61-2.37,5.2-3.67,7.74h-27.26c.34-2.64,.14-5.24-.59-7.74h31.52Z"/><path class="d" d="M239.44,671.45h30.04c-1.01,2.64-2.12,5.22-3.31,7.74h-29.9c.27-.59,.53-1.2,.78-1.8,.83-1.98,1.63-3.96,2.39-5.94Z"/><path class="d" d="M655.19,671.45c-.14,1.35-.37,2.77-.71,4.27-.26,1.16-.52,2.31-.76,3.47H277.55c1.2-2.54,2.29-5.12,3.25-7.74h374.39Z"/><path class="d" d="M841.06,671.45c-5.55,2.32-11.19,4.48-16.9,6.5-1.12,.4-2.24,.82-3.36,1.24h-153.81c.5-2.01,1.05-4,1.67-5.99,.18-.59,.34-1.17,.48-1.75h171.92Z"/><path class="d" d="M1171.47,679.19h-322.21c5.43-2.44,10.77-5.07,16.1-7.74h297.87c2.77,2.55,5.52,5.13,8.24,7.74Z"/><path class="d" d="M183.55,722.45c-7.77,3.74-16.27,6.14-25.48,6.99-3.15,.29-6.31,.55-9.47,.75h-45.51c-4.44-.3-8.89-.7-13.32-1.19-1.55-.17-3.25-.25-4.59-.94-2.78-1.42-5.99-3.1-7.46-5.61h105.83Z"/><path class="d" d="M201.91,722.45h32.11c-2.72,2.62-5.52,5.2-8.41,7.74h-34.59c3.78-2.45,7.41-5.02,10.89-7.74Z"/><path class="d" d="M245.3,722.45h215.57c-2.92,.85-5.85,1.73-8.78,2.6-7,2.08-14.14,3.69-21.31,5.14H237.57c2.62-2.53,5.2-5.11,7.73-7.74Z"/><path class="d" d="M645.95,722.45c-.4,2.58-.79,5.16-1.18,7.74h-116.68l.24-7.74h117.62Z"/><path class="d" d="M771.49,722.45c-.37,2.58-.71,5.16-1.02,7.74h-113.23c.52-2.58,1.06-5.16,1.61-7.74h112.64Z"/><path class="d" d="M1219.89,730.19h-436.86c.43-2.58,.89-5.16,1.37-7.74h428.6c2.31,2.56,4.61,5.14,6.89,7.74Z"/><path class="d" d="M188.43,611.19H12.01c-.53-2.22-.82-4.55-.84-6.97,0-.26,0-.51,0-.77H184.37c2.08,2.56,3.36,5.14,4.06,7.74Z"/><path class="d" d="M238.09,603.45c-1.39,2.65-3.01,5.18-4.57,7.74h-33.14c-.81-2.62-1.97-5.21-3.48-7.74h41.19Z"/><path class="d" d="M276.65,603.45c.28,2.65,.49,5.24,.62,7.74h-27.9c.45-2.69,1.35-5.26,2.81-7.74h24.47Z"/><path class="d" d="M627.86,611.19H285.75c-.24-2.58-.53-5.17-.85-7.74h341.8c.28,2.59,.67,5.17,1.16,7.74Z"/><path class="d" d="M715.92,611.19h-76.7c-.81-2.51-1.49-5.09-2.02-7.74h68.29c1.04,.78,2.06,1.58,3.03,2.43,2.39,2.09,4.85,3.84,7.4,5.31Z"/><path class="d" d="M781.12,603.45c-9.41,1.05-18.75,.99-28.16,0h28.16Z"/><path class="d" d="M929.22,603.45c-1.86,2.63-3.81,5.21-5.84,7.74h-107.56c6.24-2.19,12.25-4.75,18-7.74h95.4Z"/><path class="d" d="M1090.4,611.19h-147.19c1.72-2.55,3.4-5.13,5.02-7.74h131.21c3.68,2.53,7.33,5.11,10.96,7.74Z"/><path class="d" d="M635.93,790.45c-.29,2.58-.56,5.16-.8,7.74h-109.31c.09-2.58,.17-5.16,.26-7.74h109.85Z"/><path class="d" d="M763.61,790.45c-.36,2.58-.71,5.16-1.05,7.74h-115.25c.22-2.27,.44-4.53,.67-6.8,.03-.31,.06-.63,.1-.94h115.53Z"/><path class="d" d="M973.62,798.19h-199.2c.22-2.58,.45-5.16,.69-7.74h183.12c5.12,2.59,10.25,5.17,15.39,7.74Z"/><path class="d" d="M1272.85,798.19h-280.84c-1.12-.48-2.25-.97-3.37-1.45-4.89-2.11-9.84-4.15-14.75-6.29h293.96c1.73,2.56,3.38,5.14,5,7.74Z"/><path class="d" d="M529.76,892.45h101.09c-.04,2.58-.07,5.16-.1,7.74h-100.66c-.1-1.53-.17-3.07-.22-4.6-.03-1.05-.07-2.09-.11-3.14Z"/><path class="d" d="M754.94,892.45c-.08,2.58-.16,5.16-.22,7.74h-113.73c.04-2.07,.1-4.13,.18-6.2,.02-.51,.04-1.03,.06-1.54h113.71Z"/><path class="d" d="M1002.45,892.45c-.47,2.57-.93,5.15-1.36,7.74h-231.43c.04-2.56,.09-5.14,.16-7.74h232.63Z"/><path class="d" d="M1262.51,892.45c-1.24,2.59-2.52,5.17-3.82,7.74h-175.89c1.59-2.59,3.19-5.18,4.81-7.74h174.9Z"/><path class="d" d="M633.15,824.45c-.16,2.58-.3,5.16-.42,7.74h-106.17c-.12-2.58-.23-5.16-.32-7.74h106.91Z"/><path class="d" d="M759.5,824.45c-.26,2.58-.52,5.16-.76,7.74h-114.25c.17-2.58,.36-5.16,.56-7.74h114.45Z"/><path class="d" d="M1017.34,831.89c-.03,.1-.06,.2-.1,.3h-245.02c.11-2.58,.24-5.16,.39-7.74h245.64c.36,2.03,.06,4.45-.91,7.44Z"/><path class="d" d="M1283.35,832.19h-205.71c-7.09-2.5-14.14-5.08-21.17-7.74h227.02c.17,2.56,.12,5.14-.14,7.74Z"/><path class="d" d="M631.21,875.45c-.07,2.58-.14,5.16-.19,7.74h-101.65c-.13-2.58-.26-5.16-.4-7.74h102.24Z"/><path class="d" d="M755.65,875.45c-.13,2.58-.25,5.16-.36,7.74h-113.68c.11-2.58,.23-5.16,.35-7.74h113.69Z"/><path class="d" d="M1005.8,875.45c-.55,2.58-1.08,5.15-1.59,7.74h-234.14c.09-2.56,.18-5.14,.27-7.74h235.46Z"/><path class="d" d="M1270.25,875.45c-1.09,2.6-2.23,5.18-3.39,7.74h-173.23c1.74-2.6,3.52-5.18,5.34-7.74h171.28Z"/><path class="d" d="M632.31,841.45c-.1,2.58-.2,5.16-.29,7.74h-104.56c-.15-2.58-.3-5.16-.44-7.74h105.29Z"/><path class="d" d="M757.92,841.45c-.22,2.58-.43,5.16-.63,7.74h-113.93c.16-2.58,.32-5.16,.49-7.74h114.07Z"/><path class="d" d="M1014.39,841.45c-.77,2.57-1.5,5.15-2.21,7.74h-240.73c.12-2.58,.23-5.16,.35-7.74h242.59Z"/><path class="d" d="M1281.79,841.45c-.09,.38-.18,.77-.28,1.15-.56,2.21-1.16,4.41-1.8,6.59h-164.07c.61-2.24-.65-3.83-3.31-4.83-2.57-.97-5.13-1.96-7.71-2.91h177.17Z"/><path class="d" d="M634.31,807.45c-.21,2.58-.41,5.16-.58,7.74h-107.78c-.06-2.58-.1-5.16-.13-7.74h108.49Z"/><path class="d" d="M761.4,807.45c-.32,2.58-.62,5.16-.91,7.74h-114.7c.21-2.58,.44-5.16,.67-7.74h114.94Z"/><path class="d" d="M1007.95,815.19h-234.79c.16-2.58,.34-5.16,.54-7.74h218.52c5.24,2.6,10.48,5.18,15.73,7.74Z"/><path class="d" d="M1281.8,815.19h-249.05c-6.31-2.54-12.61-5.12-18.89-7.74h264.53s.02,.03,.03,.05c1.46,2.52,2.57,5.08,3.38,7.69Z"/><path class="d" d="M631.71,858.45c-.09,2.58-.16,5.16-.24,7.74h-103.01c-.16-2.58-.31-5.16-.46-7.74h103.71Z"/><path class="d" d="M756.63,858.45c-.17,2.58-.33,5.16-.49,7.74h-113.72c.13-2.58,.26-5.16,.41-7.74h113.8Z"/><path class="d" d="M1009.74,858.45c-.64,2.57-1.27,5.15-1.87,7.74h-237.16c.1-2.57,.21-5.15,.33-7.74h238.7Z"/><path class="d" d="M1276.77,858.45c-.88,2.6-1.82,5.18-2.8,7.74h-168.53c1.65-2.55,3.23-5.14,4.81-7.74h166.52Z"/><path class="d" d="M920.52,467.45c-1.95,2.64-3.96,5.22-6.02,7.74h-328.56c-1.4-2.55-2.75-5.13-4.07-7.74h98.86c4.64,1.32,9.34,2.5,14.08,3.56,2.29,.51,4.8,1.29,6.97,.82,6.7-1.44,13.42-2.83,20.1-4.38h198.64Z"/><path class="d" d="M632.97,535.45h214.83c-1.77,1.38-3.49,2.83-5.13,4.38-1.13,1.07-3.09,1.8-3.27,3.36h-196.73c-3.31-2.47-6.55-5.04-9.7-7.74Z"/><path class="d" d="M878.23,541.72c-.04,.5-.11,.99-.19,1.47h-20.69c4.6-1.25,8.99-3.11,12.83-6.51,.48-.42,.97-.86,1.48-1.23h4.99c1.9,1.61,1.79,3.93,1.58,6.27Z"/><path class="d" d="M954.55,543.19h-66.19c.92-2.55,1.77-5.13,2.57-7.74h59.63c2.82,1.8,3.88,4.63,3.99,7.74Z"/><path class="d" d="M622.91,526.19c-2.52-2.49-4.95-5.07-7.29-7.74h255.04c-.58,.5-1.17,1-1.76,1.5-2.63,2.22-5.4,4.26-8.2,6.24h-237.79Z"/><path class="d" d="M654.36,458.19h-76.99c-1.19-2.56-2.35-5.14-3.47-7.74h64.17c5.33,2.82,10.76,5.4,16.29,7.74Z"/><path class="d" d="M740.49,450.45c-5.07,1.38-10.6,2.69-16.68,3.91-12.49,2.5-18.74,3.75-27.48,3.58-6.82-.13-11.02-.97-33.67-7.49h77.83Z"/><path class="d" d="M933.88,450.45c-2.57,2.09-4.73,4.8-6.82,7.74h-174.45c.22-.08,.44-.17,.66-.26,5.5-2.25,10.87-4.75,16.13-7.48h46.81c.24,.5,.67,.88,1.43,1.01,1.1,.19,1.71-.29,2.09-1.01h114.15Z"/><path class="d" d="M889.74,501.45c-2.77,2.63-5.59,5.2-8.44,7.74h-273.25c-1.97-2.55-3.88-5.13-5.72-7.74h91.31c1.32,.72,2.6,1.51,3.81,2.41,.88,.66,2.32,.33,2.71-.66,.28-.69,.62-1.27,1.02-1.75h188.56Z"/><path class="d" d="M906.53,484.45c-2.38,2.63-4.82,5.21-7.31,7.74h-186.28c.04-.51,.03-1.04-.02-1.58-.32-3.31-2.5-5.44-5.64-5.49-12.35-.2-24.71-.08-37.61-.08,1.75,3.02,3.89,5.31,6.27,7.15h-79.89c-1.66-2.56-3.26-5.14-4.82-7.74h315.3Z"/><g><path class="d" d="M211.83,739.45c-7.58,3.53-15.69,4.78-24.89,3.51-2.88-.39-6.29-.22-7.26-3.51h32.15Z"/><path class="d" d="M381.47,739.45c-25.96,3.8-52.14,5.19-78.45,5.17-21.51-.01-43.02,.03-64.54-.07-3.24-.02-7.4,.96-8.85-3.22-.23-.68-.31-1.3-.25-1.88h152.09Z"/></g><path class="d" d="M133.87,705.45c-11.38,.94-22.74,1.58-34.16,1.19-10.49-.19-20.94-.06-31.45-1.19h65.61Z"/><g><path class="d" d="M109.47,645.19H41.56c3.78-2.21,7.86-3.62,11.5-3.42,16.96,.92,34.22-2.44,50.84,2.01,1.85,.5,3.71,.96,5.57,1.41Z"/><path class="d" d="M180.9,637.45c-3.55,2.97-8.25,4.54-13.49,4.78-8.09,.36-16.05,0-24.09-2.19-3.55-.97-7.1-1.83-10.66-2.59h48.24Z"/></g><g><path class="d" d="M180.07,552.45c-.47,2.6-1.19,5.19-2.09,7.74h-50.32c-16.14-4.81-32.34-6.92-47.68-6.25-18.37,.02-33.47,.56-47.87,6.25h-14.43c-3.31-1.69-6.51-4.38-9.16-7.74H180.07Z"/><path class="d" d="M250.34,560.19h-56.66c.83-2.5,1.47-5.1,1.9-7.74h53.5c.52,2.54,.94,5.12,1.26,7.74Z"/><path class="d" d="M360.73,560.19h-85.51c-.99-3.47-1.27-6-.66-7.74h30.09c7.62,1.53,15.24,3.21,23,4.15,11.02,1.33,22.04,2.54,33.08,3.59Z"/><path class="d" d="M630.32,560.19h-113.67c18.49-1.38,36.99-2.7,55.56-3.3,16.17-.51,32.28-3.4,48.58-2.79,7.43,.28,9.85,1.36,9.53,6.09Z"/></g><g><path class="d" d="M180.68,543.19H3.24c-1.04-2.54-1.82-5.13-2.34-7.74H179.21c.84,2.53,1.31,5.12,1.47,7.74Z"/><path class="d" d="M246.75,543.19h-50.5c-.07-2.69-.38-5.3-.94-7.74h48.82c.97,2.54,1.85,5.12,2.62,7.74Z"/></g><path class="d" d="M174.32,526.19H0c.01-2.57,.22-5.15,.61-7.74H168.27c2.15,2.44,4.16,5.02,6.05,7.74Z"/><path class="d" d="M240.2,526.19h-48.62c-1.43-2.71-3-5.29-4.71-7.74h49.41c1.38,2.55,2.69,5.13,3.92,7.74Z"/><path class="d" d="M928.54,526.19h-34.73c2.38-5.56,6.37-7.41,13.42-6.28,7.42,1.18,14.43,3.55,21.31,6.28Z"/><g><path class="d" d="M158.71,509.19H3.21c1.35-2.76,3.27-5.36,5.59-7.74H147.53c3.97,2.3,7.7,4.88,11.18,7.74Z"/><path class="d" d="M230.92,509.19h-51.73c-2.75-2.82-5.76-5.39-9.01-7.74h55.51c1.72,2.31,3.35,4.7,4.89,7.18,.11,.19,.23,.37,.34,.56Z"/></g><g><path class="d" d="M126.33,492.19H22.3c4.9-2.25,10.24-3.76,15.55-4.33,17.81-1.9,35.57,1.43,53.2-.38,12.48-1.29,23.96,.9,35.28,4.71Z"/><path class="d" d="M218.04,492.19h-64.22c-5.48-2.67-10.95-5.32-16.53-7.74h73.2c2.6,2.5,5.13,5.07,7.55,7.74Z"/></g><path class="d" d="M200.29,475.19H114.44c-3.65-2.12-6.82-4.75-9.62-7.74h86.35c3.05,2.56,6.11,5.12,9.12,7.74Z"/><path class="d" d="M180.41,458.19H97.77c-1.56-2.48-2.99-5.07-4.34-7.74h79.62c2.24,2.69,4.71,5.26,7.36,7.74Z"/><g><path class="d" d="M166.61,441.19H89.13c-1.11-2.56-2.16-5.14-3.13-7.74h77.03c.97,2.69,2.17,5.26,3.58,7.74Z"/><path class="d" d="M599.86,441.19h-29.78c-1.01-2.56-2-5.14-2.95-7.74h27.82c1.44,2.68,3.03,5.3,4.91,7.74Z"/><path class="d" d="M620.61,441.19h-11.41c1.67-2.22,4.4-2.4,7.26-1.45,1.38,.46,2.77,.93,4.15,1.45Z"/><path class="d" d="M784.46,433.45c-.86,.41-1.75,.83-2.68,1.26-4.67,2.17-9.4,4.35-14.49,6.48h-133.58c-5.55-2.2-10.84-4.74-15.39-7.74h166.14Z"/><path class="d" d="M815.64,441.19h-30c3.97-2.47,7.88-5.05,11.73-7.74h16.29c.97,1.65,1.63,3.77,1.88,6.28,.05,.48,.08,.97,.1,1.46Z"/><path class="d" d="M982.56,433.45c-1.06,1.14-2.17,2.22-3.33,3.24-1.87,1.65-3.81,3.16-5.81,4.5h-151.18c.64-2.58,1.29-5.16,1.95-7.74h158.37Z"/></g><g><path class="d" d="M160.67,424.19H82.88c-.77-2.56-1.45-5.14-2.04-7.74h79.24c0,2.68,.2,5.26,.59,7.74Z"/><path class="d" d="M590.52,424.19h-26.66c-.86-2.56-1.65-5.14-2.37-7.74h28.33c-.28,2.75-.08,5.4,.7,7.74Z"/><path class="d" d="M648.32,424.19h-40.09c-1-1.44-1.83-3.11-1.23-4.28,1.51-2.94,11.09-.79,13.84-.2,7.91,1.72,17.76,3.24,27.48,4.48Z"/><path class="d" d="M718.65,416.45c-19.37,4.52-38.77,5.26-58.36,2.32-4.21-.64-8.4-1.46-12.58-2.32h70.94Z"/><path class="d" d="M803.26,418.65c0,1.76-.75,3.5-3.01,5.54h-74.57c11.25-2.1,22.14-4.88,31.32-7.74h45.89c.24,.72,.37,1.46,.37,2.2Z"/><path class="d" d="M993.26,416.45c-1.06,2.68-2.34,5.27-3.79,7.74h-162.78c.22-.78,.45-1.56,.68-2.34,.58-1.92,.84-3.72,.83-5.4h165.06Z"/></g><g><path class="d" d="M161.37,399.45c-.38,2.57-.69,5.15-.9,7.74H79.2c-.33-2.56-.56-5.14-.67-7.74h82.84Z"/><path class="d" d="M597.14,399.45c-1.91,2.26-3.54,4.93-4.79,7.74h-33.17c-.56-2.57-1.07-5.15-1.52-7.74h39.48Z"/><path class="d" d="M781.62,399.45c-1.26,.97-2.73,1.83-4.37,2.65-4.29,2.14-8.69,3.78-13.17,5.09h-151.86c-1.84-1.86-3.13-4.35-3.72-7.74h173.12Z"/><path class="d" d="M791.62,407.19h-9.51c2.77-.64,6.1-.92,9.51,0Z"/><path class="d" d="M997.03,399.45c-.12,2.59-.46,5.18-.99,7.74h-171.09c-1.21-1.66-2.72-3.21-4.45-4.7-1.15-.99-2.27-2.02-3.4-3.04h179.93Z"/></g><g><path class="d" d="M165.01,382.45c-.71,2.57-1.35,5.15-1.92,7.74H78.48c.07-2.61,.21-5.19,.42-7.74h86.11Z"/><path class="d" d="M786.29,389.61c0,.2,0,.39-.01,.58h-230.07c-.35-2.57-.66-5.15-.93-7.74h229.59c.54,2.38,.95,4.78,1.42,7.16Z"/><path class="d" d="M996.56,390.19h-190.82c-2.76-2.57-5.37-5.31-8.23-7.74h197.03c.93,2.5,1.6,5.1,2.02,7.74Z"/></g><g><path class="d" d="M169.62,365.45c-.54,2.6-1.17,5.18-1.88,7.74H80.08c.45-2.63,1-5.21,1.67-7.74h87.87Z"/><path class="d" d="M989.42,373.19h-434.98c-.08-.97-.15-1.94-.22-2.91-.11-1.61-.22-3.22-.31-4.83h121.7c3.2,4.5,7.16,8.26,11.75,7.59,4.34-.35,7.28,.24,8.97-2.33,1.37-2.1,.48-3.72-.67-5.26h286.7c2.27,2.65,4.86,5,7.06,7.74Z"/></g><g><path class="d" d="M171.68,348.45c-.08,2.59-.28,5.17-.58,7.74H84.83c1.09-2.66,2.33-5.24,3.75-7.74h83.1Z"/><path class="d" d="M664.62,348.45c1.6,2.59,3.21,5.18,4.84,7.74h-115.98c-.08-2.58-.13-5.16-.13-7.74h111.27Z"/><path class="d" d="M983.17,353.85c-1.89,.66-3.11,1.45-3.82,2.34h-290.34c-.78-1.1-1.56-2.19-2.34-3.29-1.05-1.48-1.96-2.96-2.69-4.45h303.07c.18,2.44-.94,4.36-3.88,5.4Z"/></g><path class="d" d="M171.39,339.19H95.06c2.33-2.74,4.94-5.32,7.89-7.74h66.29c1.08,2.36,1.78,4.98,2.15,7.74Z"/><path class="d" d="M662.92,331.45c-1.96,2.49-2.77,5.05-2.5,7.74h-106.89c.11-2.59,.26-5.17,.49-7.74h108.9Z"/><path class="d" d="M960.87,339.19h-278.63c.28-2.12,1.06-4.31,2.45-6.63,.22-.37,.44-.74,.66-1.11h269.13c2,2.27,3.92,4.62,5.78,7.04,.18,.24,.39,.48,.61,.7Z"/><path class="d" d="M964.53,339.19c.74-.94,.45-2.27-.03-3.35-.65-1.5-1.39-3.08-2.37-4.39h17.84c.11,.17,.23,.35,.34,.52,1.51,2.34,2.72,4.75,3.74,7.22h-19.52Z"/><path class="d" d="M997.82,339.19h-7.7c-2.11-2.45-4.18-4.96-5.77-7.74h11.89c.49,1.5,.96,3.01,1.48,4.5,.38,1.1,.49,2.25,.1,3.24Z"/><g><path class="d" d="M160.15,322.19h-41.75c11.98-4.64,25.53-4.65,38.45-1.19,1.18,.32,2.28,.72,3.3,1.19Z"/><path class="d" d="M556.27,314.45h123.59c-2.44,2.63-4.96,5.21-7.53,7.74h-117.26c.35-2.59,.75-5.17,1.2-7.74Z"/><path class="d" d="M945.57,322.19h-254.73c1.52-2.57,3.03-5.15,4.53-7.74h241.39c3.04,2.47,5.98,5.05,8.81,7.74Z"/><path class="d" d="M973.27,322.19h-20.1c-2.56-2.59-5.14-5.16-7.73-7.74h21.29c2.25,2.52,4.44,5.09,6.54,7.74Z"/><path class="d" d="M992.3,322.19h-11.68c-1.08-2.72-2.33-5.29-3.72-7.74h10.93c1.54,2.54,3.03,5.12,4.47,7.74Z"/><path class="d" d="M999.64,314.45c-.44,1.21-1.34,2.17-3.1,2.5-2.44,.46-3.89-.78-4.87-2.5h7.97Z"/></g><g><path class="d" d="M693.97,297.45c-1.9,2.64-3.9,5.22-5.97,7.74h-130c.53-2.59,1.09-5.17,1.7-7.74h61.37c1.86,1.86,4.55,2.94,7.86,3.01,3.52,.08,6.06-1.02,7.78-3.01h57.26Z"/><path class="d" d="M958.02,305.19h-257.36c1.46-2.57,2.9-5.15,4.32-7.74h122.18c.74,.46,1.51,.89,2.3,1.29,6.08,3.04,9.31,3.04,10.66-1.29h110.2c2.58,2.57,5.16,5.14,7.7,7.74Z"/><path class="d" d="M981.92,305.19h-11.32c-2.15-2.72-4.49-5.29-6.95-7.74h12.86c1.86,2.54,3.66,5.12,5.41,7.74Z"/><path class="d" d="M999.48,305.19h-11.6c-1.14-2.64-2.37-5.21-3.67-7.74h13.67c.7,2.53,1.23,5.11,1.6,7.74Z"/><path class="d" d="M1013.67,297.45c-.33,.99-.66,1.98-1,2.97-.62,1.83-1.32,3.71-2.66,4.77h-5.5c-1.82-1.27-2.34-3.79-2.52-6.1-.04-.55-.09-1.1-.15-1.64h11.83Z"/></g><path class="d" d="M617.23,280.45c.09,2.57,.32,5.16,.63,7.74h-55.86c.69-2.59,1.41-5.17,2.16-7.74h53.07Z"/><path class="d" d="M704.54,280.45c-.58,1.06-1.16,2.12-1.74,3.17-.86,1.55-1.74,3.07-2.66,4.57h-60.2c.48-2.58,.91-5.16,1.33-7.74h63.27Z"/><path class="d" d="M814.32,288.19h-104.36c.32-.59,.63-1.19,.94-1.78,1.03-1.97,2.15-3.94,3.2-5.96h83.13c4.22,1.77,8.36,3.76,12.63,5.47,1.59,.63,3.06,1.4,4.46,2.27Z"/><path class="d" d="M941.11,288.19h-100.41c-.35-2.51-1.08-5.14-2.31-7.74h95.83c.17,.25,.34,.48,.51,.7,1.76,2.27,3.77,4.36,5.77,6.42,.2,.21,.4,.41,.61,.62Z"/><path class="d" d="M969.39,288.19h-16.03c-3.19-2.63-6.46-5.19-9.75-7.74h19.27c2.24,2.54,4.41,5.12,6.51,7.74Z"/><path class="d" d="M994.54,288.19h-15.64c-1.65-2.64-3.38-5.21-5.19-7.74h16.69c1.56,2.49,2.94,5.07,4.14,7.74Z"/><path class="d" d="M1018.9,280.45c-.73,2.59-1.48,5.17-2.27,7.74h-16.39c-.66-2.67-1.49-5.25-2.48-7.74h21.14Z"/><g><path class="d" d="M569.59,263.45h49.59c-.8,2.54-1.32,5.13-1.63,7.74h-50.54c.82-2.59,1.69-5.17,2.58-7.74Z"/><path class="d" d="M713.65,263.45c-.16,.33-.31,.66-.47,.96-1.21,2.26-2.42,4.52-3.64,6.78h-66.78c.06-.34,.11-.68,.17-1.02-.16-1.91-.52-4.35-1-6.72h71.72Z"/><path class="d" d="M789.75,263.45c-4.03,1.27-7.84,2.93-11.28,4.71-1.44,.74-3.29,1.41-3.73,3.03h-57.05c.39-1.88,.56-3.84,.39-5.9-.05-.58-.03-1.24-.12-1.84h71.79Z"/><path class="d" d="M954.33,271.19h-123.09c-4.03-3.6-8.21-6.11-12.44-7.74h127.69c2.68,2.52,5.3,5.11,7.84,7.74Z"/><path class="d" d="M983.93,271.19h-17.36c-2.15-2.63-4.38-5.2-6.67-7.74h17.82c2.14,2.5,4.21,5.09,6.21,7.74Z"/><path class="d" d="M1023.14,263.45c-.56,2.59-1.16,5.17-1.8,7.74h-28.09c-1.56-2.67-3.31-5.25-5.23-7.74h35.12Z"/></g><g><path class="d" d="M937.02,254.19h-298.14c-4.06-6.47-10.99-6.67-15.4,0h-50.53c.97-2.59,1.98-5.18,3.02-7.74h355.41c0,1.31,.78,2.58,1.8,3.67,1.27,1.37,2.55,2.73,3.84,4.07Z"/><path class="d" d="M969.17,254.19h-18.03c-.22-.22-.44-.45-.66-.67-2.53-2.56-5.37-4.84-8.25-7.07h18.59c2.88,2.48,5.66,5.06,8.35,7.74Z"/><path class="d" d="M1026.23,246.45c-.37,2.59-.79,5.17-1.25,7.74h-45.18c-.68-.68-1.37-1.35-2.08-2.01-2-1.88-3.95-3.79-5.9-5.73h54.41Z"/></g><g><path class="d" d="M948.96,237.19h-369.1c1.14-2.59,2.3-5.17,3.5-7.74h353.54c.17,.11,.35,.21,.53,.32,3.98,2.32,7.82,4.8,11.53,7.42Z"/><path class="d" d="M1028.04,229.45c-.17,2.59-.39,5.18-.66,7.74h-64.72c-1.85-1.86-3.72-3.7-5.61-5.51-.79-.76-1.46-1.5-2-2.23h72.99Z"/></g><g><path class="d" d="M560.8,212.45h18.79c-1.44,2.52-2.81,5.09-4.06,7.74h-9.88c-.1-.11-.19-.22-.29-.33-1.99-2.37-3.5-4.86-4.56-7.41Z"/><path class="d" d="M840.33,220.19h-252.49c1.29-2.59,2.63-5.18,4-7.74h240.57c2.71,2.48,5.32,5.1,7.92,7.74Z"/><path class="d" d="M941.45,212.45s-.06,.05-.09,.07c-1.4,1.16-3.2,1.84-4.65,2.94-2.2,1.69-3.72,3.24-4.55,4.73h-82.84c-1.78-2.57-3.53-5.17-5.31-7.74h97.44Z"/><path class="d" d="M1028.55,212.45c-.02,.63-.03,1.27-.05,1.9,.01,1.96,0,3.9-.06,5.84h-73.25c.46-.6,1.01-1.21,1.65-1.84,1.91-1.87,3.7-3.88,5.47-5.9h66.24Z"/></g><path class="d" d="M559.07,195.45h31.23c-1.67,2.59-3.37,5.15-5.03,7.74h-26.52c-.07-1.77,.05-3.53,.33-5.25,0-.85-.01-1.68-.01-2.49Z"/><path class="d" d="M623.62,195.45c-.89,.9-1.75,1.95-2.52,3.2-.93,1.5-1.65,3.14-2.08,4.54h-22.07c.72-1.27,1.45-2.53,2.19-3.79,.86-1.46,1.72-2.77,2.6-3.95h21.88Z"/><path class="d" d="M820.28,203.19h-197.18c.77-.75,1.68-1.65,2.77-2.73,2-1.99,3.68-3.67,5.11-5.01h176.55c-.16,3.35,4.58,3.73,6.69,4.63,2.12,.91,4.14,1.96,6.06,3.11Z"/><path class="d" d="M958.53,195.45c-1.49,2.93-3.58,5.45-5.94,7.74h-115.49c-.05-.07-.11-.13-.16-.2-2.18-2.63-4.54-5.15-7.02-7.54h128.61Z"/><path class="d" d="M1028.38,203.19h-57.38c2.42-2.38,4.43-4.98,6.05-7.74h50.71c.28,2.55,.49,5.13,.62,7.74Z"/><g><path class="d" d="M593.26,186.19h-34.02c.21-2.71,.65-5.27,1.54-7.74h21.52c2,1.88,4.27,3.31,6.92,4.41,2.06,.85,3.39,1.99,4.04,3.33Z"/><path class="d" d="M629.83,186.19h-16.26c1.04-.38,2.09-.67,3.13-.91,4.98-1.14,10.14-.4,13.13,.91Z"/><path class="d" d="M960.99,186.19h-320.98c-2.78-2.55-3.42-4.86-2.1-7.74h322.49c.54,2.57,.75,5.17,.59,7.74Z"/><path class="d" d="M1026.39,186.19h-45.52c.67-2.54,1.05-5.13,1.15-7.74h42.7c.63,2.54,1.2,5.12,1.67,7.74Z"/></g><g><path class="d" d="M639.09,161.45c-.08,.08-.15,.15-.23,.23-2.8,2.82-5.83,5.37-9.09,7.51h-44.21c-2.83-2.16-5.32-4.77-7.5-7.74h61.03Z"/><path class="d" d="M957.04,169.19h-311.69c2.41-2.61,4.86-5.19,7.34-7.74h299.03c2.07,2.36,3.87,4.98,5.32,7.74Z"/><path class="d" d="M1022.01,169.19h-40.72c-.52-2.63-1.31-5.22-2.37-7.74h40.22c1.04,2.54,2,5.12,2.87,7.74Z"/></g><g><path class="d" d="M655.69,144.45c-2.49,2.58-4.99,5.17-7.5,7.74h-75.38c-.63-1.45-1.22-2.95-1.75-4.5-.37-1.07-.72-2.15-1.05-3.24h85.68Z"/><path class="d" d="M853.28,152.19h-191.39c2.63-2.6,5.28-5.18,7.94-7.74h175.09c1.28,1.26,2.55,2.55,3.81,3.84,1.4,1.43,2.92,2.73,4.55,3.9Z"/><path class="d" d="M899.4,144.45c-4.18,1.45-8.31,3.1-12.35,5.13-8.38,4.2-17.3,1.89-23.98-5.13h36.33Z"/><path class="d" d="M939.58,152.19h-33.17c7.22-1.89,14.61-2.93,22.24-2.69,3.77,.12,7.46,1.08,10.93,2.69Z"/><path class="d" d="M1014.93,152.19h-41.35c-2.11-2.79-4.6-5.4-7.47-7.74h44.6c1.49,2.54,2.9,5.12,4.22,7.74Z"/></g><g><path class="d" d="M672.02,127.45c-2.49,2.58-4.97,5.16-7.44,7.74h-96.97c-.54-2.56-1-5.14-1.35-7.74h105.76Z"/><path class="d" d="M738.95,135.19h-59.44c.12-.11,.24-.23,.36-.34,3.15-2.98,5.85-5.44,8.3-7.4h31.7c1.39,.69,2.87,1.44,4.43,2.24,5.05,2.6,9.89,4.44,14.65,5.5Z"/><path class="d" d="M834.5,135.19h-76.26c3.53-.8,7.11-2.04,10.78-3.74,3.03-1.4,6.09-2.75,9.2-4h43.09c.74,.33,1.48,.66,2.21,1,3.96,1.82,7.58,4.12,10.98,6.74Z"/><path class="d" d="M1004.76,135.19h-148.05c-1.59-2.68-3.29-5.26-5.09-7.74h147.36c2.02,2.54,3.94,5.11,5.78,7.74Z"/></g><g><path class="d" d="M689.88,110.45c-2.12,1.3-4.17,2.96-6.14,4.95-.91,.93-1.82,1.86-2.73,2.79h-115.68c-.17-2.57-.25-5.15-.25-7.74h124.8Z"/><path class="d" d="M773.96,110.45c-4.01,2.51-7.98,5.09-11.9,7.74h-32.81c-4.33-2.74-8.67-5.46-13.21-7.74h57.92Z"/><path class="d" d="M991,118.19h-146.94c-2.49-2.71-5.13-5.28-7.92-7.74h147.25c2.64,2.53,5.18,5.11,7.61,7.74Z"/></g><g><path class="d" d="M596.16,93.45c4.08,3.69,8.6,6.27,13.56,7.74h-44.33c.09-1.32,.2-2.64,.32-3.96,.12-1.3,.35-2.56,.66-3.78h29.79Z"/><path class="d" d="M973.31,101.19h-340.81c.63-.14,1.26-.3,1.89-.47,4.92-1.3,8.72-4.1,12.22-7.27h319.02c2.45,2.64,5.01,5.21,7.68,7.74Z"/></g><g><path class="d" d="M586.06,80.63c.72,1.24,1.46,2.43,2.23,3.56h-17.51c1.36-1.89,2.93-3.66,4.65-5.34,1.27-1.23,2.45-2.02,3.55-2.4h2.93c1.51,.55,2.87,1.98,4.15,4.18Z"/><path class="d" d="M957.56,84.19h-300.91c2.97-2.54,5.9-5.13,8.8-7.74h286.16c1.93,2.65,3.9,5.22,5.95,7.74Z"/></g><path class="d" d="M945.18,67.19h-269.61c2.78-2.57,5.56-5.16,8.34-7.74h254.91c2.27,2.4,4.38,4.99,6.36,7.74Z"/><g><path class="d" d="M739.14,50.19h-45c9.3-7.1,27.64-8.96,37.94-3.83,2.4,1.18,4.69,2.58,7.06,3.83Z"/><path class="d" d="M928.04,50.19h-163.58c3.02-2,5.67-4.7,8.1-7.74h140.23c5.61,2,10.67,4.59,15.25,7.74Z"/></g><path class="d" d="M879.9,33.19h-100.67c1.86-2.62,3.74-5.21,5.69-7.74h77.17c5.71,3.28,11.7,5.72,17.81,7.74Z"/><path class="d" d="M848.99,16.19h-56.35c2.51-2.72,5.17-5.32,8.04-7.74h38.52c3.33,2.5,6.54,5.15,9.79,7.74Z"/></g></g></g></svg>